<svg width="343" height="522" viewBox="0 0 343 522" fill="none" xmlns="http://www.w3.org/2000/svg">
<path d="M77.5779 486.151C92.0145 485.21 106.451 484.263 120.888 483.338C122.216 483.253 123.553 483.297 124.886 483.297C151.547 483.295 178.219 482.816 204.864 483.466C222.073 483.886 239.293 485.511 256.415 487.425C271.563 489.118 286.6 491.859 301.646 494.376C304.578 494.867 307.516 496.127 310.118 497.615C314.873 500.335 314.932 504.659 309.947 507.026C305.06 509.347 299.776 511.355 294.463 512.154C278.505 514.556 262.471 516.505 246.423 518.226C236.457 519.295 226.421 519.869 216.401 520.239C201.501 520.79 186.588 521.113 171.677 521.257C154.195 521.425 136.699 521.684 119.23 521.18C104.291 520.748 89.3386 519.706 74.4707 518.173C60.5681 516.739 46.727 514.547 32.9467 512.178C28.1493 511.353 23.4649 509.315 19.03 507.199C17.1469 506.301 14.7926 503.689 14.9147 502.021C15.0466 500.22 17.5388 497.681 19.4957 497.084C27.9683 494.498 36.5618 492.221 45.2302 490.397C50.9564 489.192 56.8846 488.946 63.4728 488.33C66.8101 492.63 69.397 496.87 72.3188 501.658C74.2266 496.033 75.9022 491.092 77.5779 486.151Z" fill="#CCCCCC"/>
<path d="M327.495 64.3003C330.461 71.29 333.427 78.2796 336.008 85.8115C334.253 87.5495 332.673 88.5748 331.544 89.9662C311.797 114.31 292.056 138.66 272.414 163.089C252.357 188.035 232.471 213.118 212.397 238.049C188.474 267.761 164.38 297.335 140.542 327.114C138.815 329.271 138.563 332.609 137.626 335.398C136.809 336.309 135.993 337.219 134.684 338.05C129.049 339.573 126.655 343.434 125.616 348.408C124.499 349.955 123.382 351.501 121.634 353.266C120.54 354.459 120.078 355.434 119.616 356.409C118.829 357.625 118.043 358.841 116.599 360.199C114.432 361.25 112.516 361.829 111.473 363.116C92.569 386.447 73.8139 409.898 54.9055 433.225C51.7126 437.165 47.956 440.647 44.4598 444.34C41.8214 437.925 39.183 431.51 36.8711 424.693C38.599 423.499 40.394 423.028 41.342 421.866C53.1946 407.337 64.9329 392.714 76.6836 378.102C89.4757 362.195 102.214 346.244 115.042 330.367C128.911 313.2 142.859 296.098 156.769 278.965C168.797 264.148 180.99 249.46 192.744 234.429C196.277 229.911 201.996 226.411 201.886 219.296C220.677 208.471 238.417 196.979 252.265 180.236C265.317 164.456 274.59 147.336 275.052 126.2C276.562 124.555 277.723 122.978 278.952 121.455C291.397 106.031 303.756 90.5358 316.371 75.2517C319.665 71.2599 323.765 67.9327 327.495 64.3003Z" fill="#AF172C"/>
<path d="M190.569 0.462576C202.093 0.162272 213.618 -0.13803 225.111 0.0679266C220.214 6.19868 215.22 11.718 210.508 17.4682C198.338 32.3193 186.205 47.2019 174.257 62.231C171.007 66.3189 168.466 70.971 165.385 75.6611C140.777 84.3932 119.905 97.9121 103.323 117.952C89.9306 134.136 80.8599 152.414 75.5958 172.633C73.2981 181.457 71.4537 190.4 69.0754 199.356C67.1165 200.799 65.2145 201.955 63.8956 203.584C46.2063 225.428 28.6288 247.362 10.9396 269.206C8.08186 272.735 4.81747 275.935 1.74105 279.287C1.02896 264.932 0.316854 250.576 0 235.692C1.56582 234.258 2.94992 233.53 3.87355 232.419C12.0469 222.588 20.2003 212.739 28.2415 202.8C44.4287 182.791 60.5124 162.699 76.6937 142.686C91.5183 124.351 106.45 106.102 121.271 87.7639C138.806 66.0688 156.323 44.3593 173.74 22.5699C179.521 15.3378 184.969 7.83928 190.569 0.462576Z" fill="#D0112D"/>
<path d="M201.571 219.462C201.996 226.411 196.277 229.911 192.743 234.43C180.989 249.461 168.797 264.149 156.768 278.965C142.858 296.098 128.91 313.2 115.041 330.367C102.213 346.245 89.4752 362.195 76.6831 378.102C64.9324 392.715 53.1941 407.337 41.3415 421.866C40.3935 423.028 38.5985 423.499 36.8237 424.312C33.8152 416.926 31.18 409.52 28.8477 401.663C30.1787 400.419 31.4087 399.79 32.2055 398.81C50.3174 376.516 68.3961 354.196 86.4517 331.856C108.892 304.092 131.331 276.327 153.696 248.503C156.23 245.351 158.291 241.818 160.889 238.293C174.662 231.904 188.116 225.683 201.571 219.462Z" fill="#B3162D"/>
<path d="M160.57 238.462C158.29 241.818 156.229 245.351 153.696 248.503C131.33 276.327 108.891 304.092 86.4509 331.856C68.3953 354.195 50.3165 376.516 32.2046 398.81C31.4079 399.79 30.1778 400.419 28.8 401.273C24.8212 389.624 21.192 377.915 17.6094 365.457C18.5846 363.146 19.3431 361.447 20.468 360.043C34.2377 342.848 47.9804 325.63 61.9336 308.585C65.0165 304.819 68.8937 301.703 72.4741 298.653C73.0195 300.613 73.496 302.209 74.0957 304.217C98.2646 275.536 126.923 253.701 160.57 238.462Z" fill="#B8152D"/>
<path d="M137.924 335.246C138.562 332.609 138.814 329.271 140.541 327.114C164.379 297.335 188.473 267.761 212.396 238.049C232.47 213.118 252.356 188.035 272.413 163.089C292.055 138.66 311.796 114.31 331.543 89.9663C332.672 88.5748 334.252 87.5495 335.998 86.2229C338.073 92.5604 339.772 99.0287 341.112 105.965C340.02 107.066 339.17 107.607 338.571 108.349C326.905 122.798 315.248 137.255 303.631 151.743C286.934 172.569 270.302 193.447 253.581 214.253C241.533 229.244 229.375 244.148 217.282 259.103C207.169 271.609 197.037 284.102 187.042 296.703C186.112 297.875 186.109 299.782 185.675 301.348C175.959 307.336 165.972 312.935 156.617 319.443C150.04 324.02 144.324 329.833 137.924 335.246Z" fill="#AC182C"/>
<path d="M0.740234 208.291C2.35252 196.943 3.95596 185.593 5.59668 174.249C5.70796 173.479 6.09967 172.75 6.8768 171.58C8.12603 170.523 8.97202 169.98 9.5758 169.241C17.4417 159.601 25.2616 149.923 33.1158 140.274C48.092 121.875 63.1249 103.521 78.0561 85.0855C94.4484 64.8457 110.794 44.5673 127.039 24.2103C128.927 21.8446 130.053 18.8707 131.533 16.1788C142.595 12.5438 153.658 8.90882 165.126 5.59521C164.889 7.21953 164.462 8.69602 163.572 9.79945C149.099 27.7419 134.522 45.6005 120.06 63.5522C101.437 86.6696 82.9294 109.88 64.3107 133C46.2127 155.475 28.1 177.938 9.82327 200.267C7.29753 203.352 3.79211 205.636 0.740234 208.291Z" fill="#D70F2D"/>
<path d="M0.671069 208.752C3.79033 205.636 7.29575 203.352 9.82149 200.267C28.0982 177.938 46.211 155.475 64.309 133C82.9276 109.88 101.435 86.6696 120.058 63.5522C134.52 45.6005 149.097 27.7419 163.57 9.79947C164.46 8.69604 164.887 7.21955 165.534 5.54459C173.6 3.56008 181.663 1.94761 190.147 0.398926C184.968 7.83942 179.52 15.3379 173.739 22.57C156.322 44.3594 138.805 66.0689 121.27 87.7641C106.449 106.102 91.5174 124.351 76.6928 142.686C60.5115 162.699 44.4278 182.791 28.2406 202.8C20.1995 212.739 12.046 222.588 3.87267 232.419C2.94904 233.53 1.56495 234.258 0.0661494 235.228C0.0265134 226.599 0.315098 217.905 0.671069 208.752Z" fill="#D3102D"/>
<path d="M342.406 131.295C342.597 147.525 338.466 162.872 332.688 177.835C322.509 204.192 305.494 225.781 284.733 244.435C269.759 257.888 253.239 269.345 235.179 278.43C228.865 281.606 222.563 284.809 215.928 287.713C216.191 286.27 216.607 284.976 217.399 283.983C224.644 274.901 231.953 265.871 239.244 256.826C252.677 240.159 266.117 223.499 279.541 206.824C297.024 185.109 314.434 163.333 332.027 141.707C335.104 137.925 338.928 134.751 342.406 131.295Z" fill="#A4192C"/>
<path d="M72.4065 298.288C68.8951 301.703 65.018 304.819 61.9351 308.585C47.9819 325.63 34.2392 342.848 20.4694 360.043C19.3445 361.447 18.5861 363.146 17.5952 365.06C13.5339 346.675 9.53461 327.938 5.83984 308.709C7.91897 306.76 10.0038 305.555 11.4208 303.809C27.8113 283.606 44.0449 263.276 60.5006 243.128C62.2131 241.031 65.0838 239.88 67.4814 238.756C67.5665 245.668 67.1009 252.161 67.7095 258.551C68.9734 271.825 70.8071 285.045 72.4065 298.288Z" fill="#C2132D"/>
<path d="M131.149 16.2275C130.052 18.8707 128.926 21.8445 127.038 24.2102C110.792 44.5673 94.4467 64.8457 78.0544 85.0854C63.1232 103.521 48.0903 121.874 33.1141 140.274C25.2599 149.923 17.44 159.601 9.5741 169.24C8.97033 169.98 8.12434 170.523 7.06445 171.224C9.15821 161.668 11.1978 151.929 14.0741 142.444C21.1148 119.227 32.283 97.9818 46.8885 78.6975C61.444 59.4792 79.2524 43.6022 100.165 31.5473C110.024 25.8642 120.545 21.3307 131.149 16.2275Z" fill="#DC0E2D"/>
<path d="M342.467 130.83C338.928 134.751 335.105 137.925 332.028 141.707C314.435 163.334 297.025 185.109 279.542 206.825C266.118 223.499 252.678 240.16 239.244 256.826C231.954 265.871 224.644 274.901 217.4 283.983C216.608 284.977 216.192 286.27 215.584 287.778C205.843 292.51 196.118 296.89 186.035 301.309C186.11 299.782 186.113 297.875 187.043 296.703C197.038 284.102 207.17 271.609 217.283 259.103C229.377 244.148 241.534 229.244 253.582 214.253C270.304 193.447 286.935 172.569 303.633 151.743C315.249 137.255 326.907 122.798 338.572 108.349C339.171 107.607 340.021 107.066 341.08 106.363C341.78 114.318 342.153 122.342 342.467 130.83Z" fill="#A8182C"/>
<path d="M165.6 75.3641C168.466 70.9709 171.006 66.3189 174.256 62.2309C186.204 47.2019 198.338 32.3192 210.507 17.4682C215.219 11.7179 220.213 6.19864 225.378 0.410156C236.513 2.35551 247.349 4.46485 258.378 7.24984C257.918 9.22155 257.468 10.6801 256.581 11.7893C243.063 28.6954 229.469 45.5403 215.965 62.4567C214.895 63.7979 214.353 65.5614 213.103 67.1906C204.011 68.0934 195.307 68.4888 186.774 69.9124C179.612 71.1074 172.65 73.5011 165.6 75.3641Z" fill="#C9122D"/>
<path d="M67.4174 238.29C65.084 239.88 62.2132 241.031 60.5007 243.128C44.045 263.276 27.8115 283.606 11.421 303.809C10.0039 305.555 7.91912 306.76 5.79581 308.276C4.48852 302.165 3.47288 296.002 2.59481 289.819C2.13952 286.613 1.92774 283.373 1.67383 279.717C4.81813 275.935 8.08252 272.735 10.9403 269.206C28.6295 247.362 46.207 225.428 63.8963 203.584C65.2151 201.955 67.1171 200.799 69.1441 199.787C68.8325 212.864 68.1249 225.577 67.4174 238.29Z" fill="#C9122D"/>
<path d="M327.456 63.9551C323.766 67.9327 319.666 71.26 316.371 75.2518C303.756 90.5358 291.397 106.031 278.952 121.455C277.724 122.978 276.562 124.555 274.993 125.744C275.419 112.256 270.471 100.965 263.754 90.1961C265.061 89.2051 266.211 88.4854 267.024 87.4902C275.281 77.3789 283.432 67.1802 291.721 57.0945C296.95 50.7321 302.361 44.5198 307.691 38.2402C313.429 45.5 319.176 52.7529 324.897 60.0266C325.798 61.1726 326.579 62.4131 327.456 63.9551Z" fill="#B3162D"/>
<path d="M213.566 67.1287C214.354 65.5615 214.895 63.798 215.966 62.4569C229.47 45.5404 243.064 28.6956 256.582 11.7894C257.469 10.6802 257.919 9.22167 258.594 7.5542C266.843 10.976 275.071 14.7692 283.446 19.2591C282.929 21.582 282.598 23.4742 281.548 24.7939C268.605 41.055 255.558 57.2326 242.161 73.3587C232.713 69.6971 223.344 67.4759 213.566 67.1287Z" fill="#C2132D"/>
<path d="M242.537 73.4316C255.558 57.2325 268.605 41.0549 281.548 24.7938C282.598 23.4741 282.929 21.5819 283.607 19.5654C290.267 24.0406 296.944 28.8658 303.536 33.8031C304.971 34.8777 306.106 36.3531 307.535 37.942C302.36 44.5198 296.949 50.7321 291.72 57.0945C283.431 67.1801 275.28 77.3788 267.023 87.4901C266.21 88.4853 265.06 89.2051 263.462 90.0365C257.865 82.3091 250.137 77.9489 242.537 73.4316Z" fill="#B8152D"/>
<path d="M44.5215 444.712C47.9557 440.647 51.7123 437.165 54.9052 433.225C73.8136 409.898 92.5687 386.447 111.473 363.116C112.516 361.829 114.432 361.25 116.313 360.34C114.173 364.949 111.638 369.548 109.152 374.173C100.531 390.207 94.8461 407.337 89.6312 425.149C84.8741 429.667 80.5768 433.753 76.6891 438.198C68.8476 447.162 61.2289 456.322 53.5183 465.401C50.54 458.629 47.5617 451.856 44.5215 444.712Z" fill="#AC182C"/>
<path d="M53.5605 465.76C61.2296 456.322 68.8484 447.162 76.6898 438.198C80.5775 433.753 84.8748 429.667 89.3351 425.377C87.9781 433.825 86.2717 442.314 84.5679 450.803C82.2548 462.327 79.9437 473.852 77.6051 485.764C75.9028 491.092 74.2271 496.033 72.3193 501.658C69.3976 496.87 66.8107 492.63 63.9138 488.223C60.2699 480.744 56.936 473.431 53.5605 465.76Z" fill="#A8182C"/>
<path d="M125.918 348.253C126.655 343.434 129.049 339.573 134.407 338.185C131.822 341.633 129.021 344.866 125.918 348.253Z" fill="#AC182C"/>
<path d="M119.908 356.26C120.078 355.434 120.54 354.459 121.345 353.411C121.192 354.262 120.696 355.187 119.908 356.26Z" fill="#AC182C"/>
</svg>
