<svg width="861" height="1135" viewBox="0 0 861 1135" fill="none" xmlns="http://www.w3.org/2000/svg">
<path d="M750.948 1131.09C750.743 1131.1 750.574 1131.18 750.339 1131.43C750.238 1131.54 749.91 1131.51 749.372 1131.38C744.333 1131.39 739.833 1131.54 735.333 1131.68C730.371 1131.6 725.408 1131.52 719.64 1131.34C714.333 1131.39 709.833 1131.54 705.333 1131.68C705.007 1131.6 704.68 1131.52 704.104 1131.52C699.635 1130.7 699.001 1127.07 698 1123.09C701.056 1121.28 704.017 1120.18 707.358 1119.07C711.824 1117.68 715.909 1116.3 720.227 1115C720.46 1115.07 720.945 1115.04 721.319 1115.1C731.385 1119.13 741.077 1123.11 750.77 1127.08C750.821 1127.25 750.872 1127.43 750.958 1128.23C750.978 1129.6 750.963 1130.34 750.948 1131.09Z" fill="#4F3F1B"/>
<path d="M769 1126.68C769.062 1126.52 769.124 1126.35 769.586 1125.88C779.001 1121.61 788.015 1117.64 797.182 1114C799.251 1115.17 801.167 1116.02 803.218 1117.13C803.923 1117.54 804.494 1117.69 805.317 1118.14C806.849 1118.66 808.13 1118.87 809.614 1119.26C810.673 1119.6 811.529 1119.77 812.711 1120.2C816.373 1121.21 819.709 1121.96 823.045 1122.71C823.026 1123.38 823.008 1124.05 822.782 1125.18C822.446 1125.98 822.318 1126.31 822.189 1126.64C819.166 1131.61 814.271 1130.81 809.604 1130.74C807.817 1130.72 806.029 1130.77 803.796 1130.91C798.442 1131.03 793.534 1131.02 787.819 1130.92C782.513 1130.97 778.012 1131.11 773.512 1131.26C772.892 1131.18 772.272 1131.09 771.344 1131.09C770.414 1130.21 769.792 1129.25 769.136 1127.72C769.103 1127.16 769 1126.68 769 1126.68Z" fill="#4F3F1B"/>
<path d="M788.077 1122.23C779.062 1126.2 770.047 1130.17 760.695 1134.19C760.293 1133.47 760.228 1132.71 760.149 1131.12C760.435 1122.73 760.739 1115.16 761.036 1107.59C761.708 1090.47 762.377 1073.36 763.167 1055.83C763.519 1050.67 763.75 1045.92 764.048 1040.71C765.538 1024.42 766.64 1008.63 761.081 992.854C760.119 988.71 759.183 984.966 758.343 980.81C757.006 974.347 755.574 968.296 754.115 961.838C752.471 954.964 750.853 948.498 749.227 941.632C747.916 935.197 746.337 929.202 745.408 923.109C744.828 919.302 742.91 920.12 740.325 920.596C740.325 928.295 740.325 935.742 740.255 943.238C740.185 943.287 740.035 943.204 739.659 943.328C738.929 944.141 738.268 944.83 738.267 945.52C738.209 972.304 738.203 999.087 738.272 1025.87C738.273 1026.33 739.279 1026.78 739.946 1027.52C740.363 1028.34 740.65 1028.87 740.972 1029.36C741.007 1029.33 740.928 1029.27 740.915 1029.65C740.985 1030.77 741.068 1031.5 741.175 1032.64C741.761 1035.79 742.322 1038.53 742.975 1041.68C744.176 1051.79 745.286 1061.51 746.328 1071.64C746.742 1076.23 747.224 1080.4 747.65 1084.84C747.717 1085.46 747.84 1085.81 747.935 1086.62C748.069 1095.12 748.231 1103.15 748.432 1111.55C748.771 1113.36 749.071 1114.8 749.299 1116.7C749.365 1121.93 749.502 1126.69 749.639 1131.46C749.794 1132.46 749.949 1133.46 750.05 1134.83C740.303 1131.24 730.611 1127.27 720.646 1122.98C720.454 1122.5 720.534 1122.33 720.973 1122.03C721.623 1120.34 722.152 1118.78 722.168 1117.22C722.253 1109.08 722.208 1100.93 722.208 1092.79C722.208 1087.33 722.208 1081.87 722.208 1076.41C722.002 1076.41 721.796 1076.42 721.59 1076.43C721.265 1080 720.939 1083.58 720.485 1086.7C719.83 1076.24 719.305 1066.22 718.857 1055.78C718.318 1050.65 717.702 1045.94 717.166 1040.86C716.892 1039.06 716.538 1037.63 716.247 1035.79C715.961 1034.13 715.613 1032.87 715.478 1031.49C715.843 1031.01 715.785 1030.7 715.617 1029.98C714.322 1022.86 712.928 1016.2 711.676 1009.17C711.031 1005.3 710.245 1001.81 709.408 997.886C707.435 986.977 705.514 976.497 703.502 965.628C703.002 963.228 702.593 961.216 702.247 958.834C701.968 957.336 701.627 956.206 701.305 955.119C701.323 955.16 701.413 955.148 701.505 954.716C701.401 952.242 701.203 950.201 701.069 947.735C700.469 938.676 699.815 930.042 699.112 921.411C699.079 920.996 698.616 920.616 698.31 919.756C696.69 908.006 701.758 898.168 705.567 888C710.09 888.088 714.141 888.128 718.36 888.526C722.097 888.97 725.667 889.057 729.667 889.159C737.754 890.832 745.411 892.49 753.136 894.562C754.204 903.673 755.012 912.398 756.267 921.059C757.241 927.787 758.773 934.435 759.962 940.621C769.499 939.417 778.083 938.333 786.654 937.713C787.166 942.52 787.691 946.864 788.229 951.655C788.794 956.821 789.345 961.54 789.896 966.723C790.388 973.782 790.719 980.394 791.42 986.967C792.026 992.657 793.051 998.302 793.753 1004.2C793.665 1005.32 793.715 1006.21 793.563 1007.53C792.627 1024.06 791.893 1040.14 790.892 1056.41C790.51 1057.23 790.395 1057.86 790.353 1058.94C790.367 1063.31 790.31 1067.25 789.997 1071.35C789.83 1072.38 789.919 1073.26 789.962 1074.61C789.711 1083.78 789.506 1092.49 789.217 1101.59C789.142 1103.86 789.151 1105.73 788.879 1107.76C788.519 1108.34 788.44 1108.75 788.303 1109.6C788.291 1112.11 788.338 1114.18 788.33 1116.67C788.21 1118.81 788.143 1120.52 788.077 1122.23Z" fill="#505052"/>
<path d="M784.655 936.735C776.071 937.818 767.488 938.901 757.95 940.105C756.762 933.92 755.23 927.272 754.255 920.544C753.001 911.883 752.193 903.158 751.171 893.606C750.811 886.413 750.474 880.074 750.445 873.445C750.901 871.523 751.221 869.884 751.169 868.256C750.898 859.834 750.288 851.416 750.244 842.994C750.114 818.435 750.221 793.874 750.15 769.313C750.145 767.448 749.467 765.584 749.123 763.777C749.144 763.834 749.031 763.879 749 763.57C749.326 761.741 749.683 760.222 750.234 759C754.329 761.508 758.23 763.719 762.279 766.234C765.501 768.352 768.483 770.354 771.673 771.935C775.785 773.973 779.328 776.242 780.127 781.303C780.471 783.486 781.473 785.565 782.211 788.07C785.504 797.557 788.763 806.666 792.046 816.155C793.761 820.95 795.451 825.365 797.178 830.155C800.71 840.585 804.205 850.64 807.886 861.23C815.515 854.745 822.706 848.632 829.745 842.647C834.041 848.07 837.98 853.043 842.015 858.136C841.467 858.858 840.78 859.764 839.815 860.787C838.744 861.799 837.951 862.694 836.856 863.741C832.452 867.841 828.352 871.789 824.003 875.885C823.247 876.606 822.741 877.18 821.949 877.929C817.297 882.285 812.93 886.467 808.27 890.87C807.067 891.385 806.157 891.678 804.871 891.803C798.578 891.527 794.881 888.921 793.088 882.967C791.175 876.613 788.435 870.508 786.056 864.294C785.578 864.39 785.101 864.487 784.623 864.583C785.697 876.059 786.771 887.534 787.889 899.439C789.018 911.389 790.102 922.91 791.205 934.629C789.154 935.289 786.904 936.012 784.655 936.735Z" fill="#EC6D4F"/>
<path d="M710.674 884.691C707.337 894.907 702.269 904.746 703.582 916.268C703.03 914.654 702.743 912.804 702.456 910.955C699.034 921.044 696.506 931.305 693.65 941.475C693.228 942.981 691.264 944.055 689.702 945.287C686.182 943.51 682.973 941.774 679.516 939.86C679.421 937.441 679.573 935.201 679.809 932.726C679.874 932.167 679.856 931.844 680.149 931.254C681.684 926.673 682.908 922.357 684.388 917.79C685.591 913.955 686.539 910.372 687.598 906.407C689.312 900.031 690.915 894.038 692.595 887.625C693.661 881.783 694.649 876.359 695.746 870.517C695.843 868.085 695.832 866.071 696.078 863.96C696.472 863.556 696.609 863.249 696.82 862.549C696.845 861.09 696.795 860.025 696.822 858.711C696.878 858.289 696.856 858.116 696.94 857.498C696.975 853.724 696.904 850.397 696.965 846.948C697.267 846.575 697.224 846.369 697.087 845.816C697.14 844.616 697.074 843.808 697.085 842.923C697.162 842.847 697.112 842.73 697.112 842.73C697.112 842.73 697.102 843.027 696.736 843.028C695.853 844.369 695.336 845.71 694.578 847.301C693.127 851.018 691.918 854.484 690.528 858.259C688.453 863.353 686.559 868.136 684.372 873.134C682.632 876.615 681.187 879.882 679.38 883.199C674.4 885.057 669.804 886.637 665.689 881.638C658.614 874.005 650.118 868.344 643.644 860.472C640.942 857.187 637.223 854.739 634 851.574C637.941 846.14 641.849 841.041 646.082 835.923C647.192 836.274 647.976 836.644 648.913 837.308C651.242 839.421 653.417 841.24 655.755 843.355C658.092 845.446 660.265 847.243 662.625 849.329C664.753 851.306 666.692 852.993 668.861 854.881C670.087 851.053 671.231 847.478 672.56 843.584C674.55 838.225 676.354 833.186 678.353 827.836C681.908 817.678 685.268 807.831 688.806 797.65C690.322 793.003 691.661 788.691 693.261 784.108C693.682 783.367 693.904 782.908 693.992 782.425C695.687 773.165 700.699 766.856 710.365 764.243C715.796 761.78 720.876 759.429 726.324 757.007C728.5 755.382 731.455 754.078 731.864 752.216C732.619 748.777 731.88 745.011 731.838 741.214C732.133 740.94 732.367 740.879 732.635 741.334C732.635 747.721 732.612 753.637 732.5 760.053C728.84 785.404 725.732 810.334 721.537 835.079C718.711 851.751 714.349 868.163 710.674 884.691Z" fill="#EC6D4F"/>
<path d="M667 941.373C668.251 940.1 670.215 939.026 670.638 937.52C673.493 927.35 676.021 917.089 679.443 907C679.73 908.85 680.017 910.699 680.612 912.777C681.182 913.401 681.645 913.781 681.679 914.195C682.381 922.826 683.035 931.461 683.303 940.592C680.531 941.468 678.154 941.848 675.393 942.141C673.548 942.318 672.088 942.58 670.676 942.869C670.723 942.895 670.693 942.791 670.352 942.807C669.007 942.34 668.004 941.857 667 941.373Z" fill="#E55F43"/>
<path d="M741.437 939C741.794 966.578 741.774 994.281 741.675 1022.45C741.058 1022.46 740.052 1022 740.05 1021.54C739.981 994.76 739.987 967.976 740.045 941.192C740.047 940.502 740.708 939.813 741.437 939Z" fill="#3A3B3C"/>
<path d="M699.243 660.607C699.246 665.641 699.207 670.294 699.226 675.405C699.242 679.142 699.156 682.422 699.168 685.702C699.181 689.273 697.85 691.248 693.894 690.953C690.958 690.734 687.991 690.927 684.109 690.941C678.511 690.978 673.841 691.011 668.703 690.995C663.516 690.978 658.798 691.011 653.734 690.999C652.695 690.888 652.002 690.823 651.241 690.311C651.1 685.194 651.028 680.523 651.003 675.393C651.017 670.288 650.986 665.642 651.009 660.575C651.413 657.973 650.029 654.784 654.581 654.841C659.382 652.748 656.145 648.895 657.05 645.58C658.051 639.462 660.731 634.727 665.571 631.003C666.996 630.309 668.096 629.662 669.646 629C674.751 629.654 679.406 630.324 684.071 630.972C684.08 630.949 684.076 630.987 684.268 631.26C690.02 634.759 691.701 640.085 692.25 646.445C692.204 649.429 692.204 651.967 692.204 654.298C694.589 654.906 696.411 655.37 698.232 655.835C698.555 657.298 698.878 658.762 699.243 660.607ZM684.824 654.332C684.762 651.216 684.995 648.058 684.567 644.992C683.934 640.454 681.185 636.918 676.583 636.864C673.534 636.828 669.306 638.176 667.688 640.411C665.7 643.159 665.804 647.462 665.15 651.119C664.598 654.207 666.01 655.453 670.017 654.904C674.735 654.872 679.453 654.84 684.824 654.332Z" fill="#F3B89A"/>
<path d="M732.221 759.969C729.727 764.863 727.179 769.437 724.684 774.039C723.502 776.218 722.421 778.451 720.865 781.501C716.577 773.728 712.644 766.6 708.466 759.084C708.243 752.782 708.266 746.866 708.316 740.024C708.332 736.795 708.113 734.469 708.357 732.192C708.706 728.929 707.317 727.273 703.999 726.542C703.127 722.878 702.476 719.457 702 715.732C705.031 714.437 707.887 713.447 711.601 712.16C712.709 707.144 714.048 700.811 715.561 694.519C715.792 693.557 716.822 692.788 717.942 692C725.72 692.023 733.039 691.976 740.708 692.153C741.215 694.875 741.372 697.373 741.484 700.281C743.51 705.237 745.288 709.951 747.758 714.27C749.282 716.935 749.855 718.932 747.177 721.279C746.414 722.288 745.899 723.133 745.058 724.143C739.719 727.562 741.788 732.621 741.24 737.307C736.395 741.326 731.652 745.043 733.539 752.515C733.406 753.622 733.334 754.362 733.262 755.102C732.905 756.621 732.548 758.14 732.221 759.969Z" fill="#EBAE3B"/>
<path d="M752.653 873.313C751.925 863.068 751.231 852.537 751.141 842.001C750.936 817.798 751.019 793.592 751.007 769.388C751.006 767.73 751.193 766.071 751.301 764C751.675 765.452 752.353 767.315 752.359 769.181C752.43 793.741 752.323 818.302 752.452 842.862C752.496 851.284 753.106 859.701 753.377 868.124C753.43 869.751 753.11 871.39 752.653 873.313Z" fill="#E55F43"/>
<path d="M226.216 659.623C224.616 657.863 223.049 655.768 221.582 653.294C225.379 648.888 229.076 644.859 233.083 640.976C234.919 642.078 236.446 643.035 237.973 643.991C234.065 649.09 230.157 654.189 226.216 659.623Z" fill="#FDFCFA"/>
<path d="M271.595 691.248C271.97 692.534 271.983 693.87 271.994 695.608C271.99 696.01 272.001 695.999 271.538 695.998C266.38 695.995 261.685 695.993 256.994 695.994C256.999 695.999 257.009 696.009 257.009 696.009C257.155 694.17 257.301 692.33 257.745 690.241C262.019 694.685 266.615 693.106 271.595 691.248Z" fill="white"/>
<path d="M705 727C708.096 727.489 709.486 729.145 709.136 732.408C708.892 734.685 709.111 737.011 709.073 739.769C708.777 740.239 708.544 740.3 708.095 740.446C707.867 740.485 707.469 740.439 707.424 740.253C707.299 739.822 707.242 739.572 707.381 738.925C706.702 734.688 705.851 730.844 705 727Z" fill="#3A3B3C"/>
<path d="M271.994 726.458C273.152 726.005 274.314 726.02 275.912 726.063C275.124 730.406 273.9 734.721 272.365 739.303C272.035 735.354 272.016 731.14 271.994 726.458Z" fill="white"/>
<path d="M331.506 208.488C336.629 210.082 341.377 211.528 346.861 213.12C350.783 213.815 353.969 214.364 357.156 214.913C357.156 214.913 357.046 214.937 357.128 215.142C357.493 215.561 357.777 215.774 358.061 215.987C358.796 216.758 359.531 217.528 360.021 218.9C354.904 222.26 353.253 225.66 354.11 231.438C354.442 235.741 351.808 236.191 348.979 236.117C344.233 235.991 339.492 235.683 334.616 235.259C334.012 234.673 333.54 234.281 333.038 233.631C332.798 232.795 332.587 232.216 332.362 231.261C333.574 229.513 334.8 228.14 336.39 226.823C337.483 226.882 338.214 226.884 339.325 226.918C340.868 226.924 342.125 226.592 343.176 226.921C349.341 228.85 350.16 224.443 351.238 220.293C351.313 220.004 351.291 219.689 351.261 220.081C337.547 215.188 324.014 210.36 310.293 205.242C305.914 202.988 301.723 201.024 297.534 199.062C293.957 207.275 293.958 207.273 300.233 211.751C300.902 212.228 301.54 212.747 302.376 213.447C303.358 214.162 304.156 214.678 305.115 215.496C305.127 217.527 304.978 219.256 304.562 221.103C303.516 221.784 302.739 222.345 301.609 222.907C297.238 219.914 293.057 217.106 289.28 213.833C287.77 212.525 287.151 210.191 286.434 208.161C287.822 207.031 289.304 206.264 289.903 205.058C291.189 202.467 294.802 200.018 291.1 196.669C291.513 195.356 291.926 194.042 292.614 192.575C297.795 192.421 302.701 192.421 307.607 192.421C307.923 192.909 308.239 193.396 308.554 193.884C307.368 195.239 306.181 196.595 304.912 198.045C313.265 201.325 322.198 204.833 331.506 208.488Z" fill="#424345"/>
<path d="M356.997 214.607C353.97 214.364 350.784 213.815 347.24 213.116C346.722 211.688 346.561 210.411 346.709 208.984C348.533 209.208 350.239 209.262 351.516 210.031C353.447 211.193 355.079 212.852 356.997 214.607Z" fill="#1E1D1D"/>
<path d="M358 215.718C357.778 215.774 357.494 215.561 357.129 215.086C357.345 215.033 357.642 215.241 358 215.718Z" fill="#1E1D1D"/>
<path d="M310.481 205.533C324.015 210.361 337.548 215.189 351.262 220.081C351.291 219.69 351.314 220.004 351.238 220.294C350.161 224.443 349.342 228.851 343.177 226.921C342.126 226.592 340.869 226.924 339.552 226.634C342.884 224.897 342.32 222.036 341.498 219.417C341.403 219.114 338.484 219.697 336.678 219.898C336.481 219.926 336.087 219.873 335.872 219.597C334.733 219.95 332.933 220.947 333.018 221.15C333.84 223.098 334.979 224.913 336.028 226.767C334.801 228.14 333.574 229.514 331.97 231.062C330.333 230.841 329.075 230.446 327.627 229.805C326.301 229.017 325.165 228.476 324.013 227.961C323.998 227.989 324.06 227.988 324.028 227.571C324.026 225.775 324.056 224.396 324.394 222.853C329.83 220.829 327.582 217.648 325.903 214.883C324.014 211.773 319.985 212.211 314.975 216C315.638 217.01 316.318 218.046 316.982 219.307C316.966 219.532 316.999 219.983 316.727 220.184C312.857 225.984 308.817 222.962 304.83 220.984C304.979 219.256 305.128 217.528 305.51 215.43C312.24 214.074 313.551 211.263 310.062 205.96C310.204 205.821 310.481 205.533 310.481 205.533Z" fill="#1FA4AC"/>
<path d="M302.193 213.247C301.541 212.747 300.902 212.229 300.234 211.752C293.959 207.273 293.957 207.275 297.535 199.062C301.723 201.025 305.915 202.988 310.293 205.243C310.481 205.533 310.204 205.821 309.702 205.907C303.966 204.434 301.837 206.638 302.193 213.247Z" fill="#1FA4AC"/>
<path d="M336.391 226.823C334.98 224.913 333.84 223.098 333.019 221.149C332.933 220.947 334.733 219.949 335.639 219.827C336.173 221.602 336.727 222.872 337.282 224.142C337.973 223.756 338.664 223.37 339.355 222.984C338.529 221.946 337.702 220.907 336.875 219.869C338.485 219.697 341.403 219.114 341.498 219.417C342.321 222.035 342.885 224.896 339.172 226.602C338.215 226.884 337.485 226.882 336.391 226.823Z" fill="#99D2CE"/>
<path d="M302.378 213.447C301.838 206.637 303.968 204.433 309.561 206.047C313.552 211.263 312.241 214.074 305.349 215.127C304.158 214.678 303.359 214.162 302.378 213.447ZM303.493 211.959C305.163 212.376 306.854 213.15 308.492 213.05C309.23 213.005 310.562 211.057 310.379 210.258C310.098 209.028 308.937 207.423 307.808 207.072C304.264 205.969 303.474 208.523 303.493 211.959Z" fill="#99D2CE"/>
<path d="M317.652 218.901C317.652 218.901 317.304 218.914 317.151 218.998C316.318 218.046 315.637 217.01 314.975 216C319.985 212.21 324.014 211.773 325.903 214.883C327.582 217.648 329.83 220.829 324.275 222.476C323.319 216.677 321.96 215.939 317.652 218.901Z" fill="#3A3B3C"/>
<path d="M318.086 218.938C321.961 215.94 323.319 216.677 323.968 222.64C324.057 224.396 324.027 225.775 324.029 227.571C323.375 226.089 322.236 224.219 322.115 222.285C321.952 219.686 320.923 218.775 318.086 218.938Z" fill="#FDFCFA"/>
<path d="M336.679 219.897C337.702 220.908 338.529 221.946 339.356 222.984C338.665 223.37 337.973 223.756 337.282 224.142C336.728 222.872 336.174 221.603 335.854 220.103C336.087 219.873 336.482 219.925 336.679 219.897Z" fill="#F0F1F0"/>
<path d="M326.381 230.002C325.438 229.527 324.781 229.061 324.076 228.264C325.164 228.475 326.301 229.017 327.627 229.805C327.434 230.037 327.051 230.024 326.381 230.002Z" fill="#FDFCFA"/>
<path d="M303.318 211.634C303.474 208.523 304.264 205.969 307.808 207.072C308.937 207.423 310.098 209.029 310.379 210.258C310.562 211.057 309.23 213.005 308.492 213.05C306.854 213.15 305.163 212.376 303.318 211.634Z" fill="#2BA3AA"/>
<path d="M14.212 396.244C14.8026 395.657 15.5796 395.314 17.0384 395.117C24.1897 397.123 30.6591 398.982 36.8486 401.063C35.1323 407.361 33.5897 413.416 32.357 419.533C32.1331 420.644 32.8512 422.754 33.6947 423.123C36.5438 424.371 39.6044 425.33 42.6741 425.766C43.6319 425.902 45.5212 424.23 45.8791 423.05C47.7842 416.771 49.3385 410.385 51.3005 404.129C55.0709 405.123 58.5552 406.022 62.3452 407.07C64.7697 407.789 66.8884 408.362 69.0038 409.293C65.6188 428.112 59.9733 445.989 54.5981 464.022C51.792 463.362 49.3758 462.715 46.574 462.009C41.4809 460.669 36.7733 459.387 31.6525 458.071C21.142 455.402 11.0447 452.767 0.947266 450.132C2.91846 442.356 4.88966 434.581 6.87919 426.434C8.01604 421.258 9.13457 416.454 10.1543 411.34C11.5032 406.183 12.9509 401.335 14.212 396.244ZM6.8488 440.09C6.05132 442.557 5.25385 445.024 4.24392 448.148C9.13152 449.385 13.6136 450.519 18.3236 451.71C18.9652 449.038 19.4528 447.007 19.9913 444.763C18.6332 444.248 17.4855 443.812 16.2711 443.351C16.8043 441.494 17.2774 439.846 17.7986 438.031C15.6167 437.217 13.8422 436.125 11.992 435.976C9.75799 435.797 6.60918 435.166 6.8488 440.09ZM62.3571 410.236C58.214 410.726 58.5362 414.407 58.4734 416.902C58.4492 417.864 61.9668 418.914 63.8707 419.924C64.1609 419.554 64.4511 419.184 64.7412 418.813C63.7227 416.129 69.172 412.45 62.3571 410.236Z" fill="#F4D7AB"/>
<path d="M54.9883 464.036C59.9736 445.989 65.6191 428.112 69.3859 409.329C72.1665 409.63 74.562 410.253 77.1991 411.012C78.6228 411.438 79.8051 411.729 81.2088 412.281C80.5755 417.049 79.7207 421.554 78.7161 426.388C76.0193 436.464 73.4725 446.211 70.7431 456.28C69.539 459.842 68.5173 463.079 67.5026 466.296C65.5883 466.209 63.8169 466.128 61.7526 465.882C59.3026 465.156 57.1454 464.596 54.9883 464.036Z" fill="#EBBF9C"/>
<path d="M36.8494 401.063C40.1517 401.529 43.174 402.217 46.8993 403.073C48.7399 403.506 49.8775 403.771 51.0151 404.036C49.3394 410.385 47.7851 416.771 45.8799 423.05C45.522 424.23 43.6327 425.902 42.675 425.766C39.6053 425.33 36.5447 424.371 33.6955 423.124C32.852 422.754 32.1339 420.644 32.3578 419.533C33.5906 413.416 35.1331 407.361 36.8494 401.063Z" fill="#C8CECF"/>
<path d="M6.90292 439.693C6.6094 435.167 9.75821 435.798 11.9922 435.977C13.8424 436.125 15.6169 437.218 17.7988 438.031C17.2776 439.846 16.8045 441.494 16.2714 443.352C17.4857 443.813 18.6334 444.248 19.9915 444.764C19.453 447.007 18.9654 449.038 18.3238 451.711C13.6139 450.519 9.13174 449.385 4.24414 448.149C5.25407 445.024 6.05154 442.557 6.90292 439.693Z" fill="#F0F1F0"/>
<path d="M62.7139 410.392C69.1734 412.45 63.7241 416.129 64.7426 418.814C64.4524 419.184 64.1622 419.554 63.8721 419.924C61.9682 418.914 58.4506 417.864 58.4747 416.903C58.5375 414.407 58.2153 410.726 62.7139 410.392Z" fill="#F0F1F0"/>
<path d="M719.148 692.682C718.487 693.54 717.457 694.309 717.226 695.27C715.713 701.563 714.373 707.896 713.266 712.912C709.552 714.199 706.696 715.189 703.533 716.095C702.714 713.184 702.202 710.357 701.749 707.286C701.708 706.73 701.609 706.419 701.615 705.649C701.7 703.937 701.678 702.684 701.482 701.039C701.179 698.039 701.051 695.431 701 692.488C701.758 689.664 702.438 687.175 703.372 684.506C705.8 682.57 707.975 680.813 710.499 678.969C714.167 678.198 717.508 677.603 720.79 676.774C721.802 676.518 722.654 675.626 723.98 675C726.529 675.076 728.678 675.177 731.142 675.494C736.448 677.703 741.561 679.44 746.394 681.759C750.941 683.941 752.207 688.005 751.074 693.166C749.698 695.214 748.411 696.93 746.806 698.695C745.39 699.37 744.292 699.997 743.193 700.624C743.037 698.125 742.88 695.627 742.227 692.638C734.203 692.326 726.675 692.504 719.148 692.682Z" fill="#353638"/>
<path d="M852.095 850.059C850.755 851.003 849.416 851.946 848.536 852.566C837.647 845.574 834.674 836.682 842.093 825.13C848.248 827.519 849.817 821.58 852.914 817.375C853.051 817.047 853.03 817.107 853.28 817C854.53 817.011 855.529 817.128 856.707 817.585C857.981 822.958 859.076 827.991 860.118 833.396C861.611 838.835 859.024 842.551 855.737 846.253C854.33 847.602 853.212 848.83 852.095 850.059Z" fill="#EBAE3B"/>
<path d="M616.658 832.034C616.806 832.514 616.953 832.993 617.176 833.722C613.553 838 609.856 842.029 605.836 846.188C600.673 843.447 596.525 839.923 594 833.853C594.18 827.509 594.736 821.827 595.362 815.794C595.797 814.107 596.162 812.769 596.818 811.247C597.773 810.428 598.437 809.793 599.267 809C600.655 810.792 601.905 812.406 603.146 814.345C605.25 819.274 609.29 819.378 613.611 819.477C614.706 823.911 615.682 827.973 616.658 832.034Z" fill="#EBAE3B"/>
<path d="M271.996 710.996C271.995 715.686 271.999 720.381 272.007 725.543C267.315 726.006 262.619 726.002 257.463 725.999C257.001 726.001 257.01 726.01 257.006 725.543C257.005 720.381 257.007 715.685 257.01 710.99C257.01 710.99 257 711 257.462 711.001C262.62 711.005 267.315 711.008 272.01 711.01C272.01 711.01 272.001 711.001 271.996 710.996Z" fill="white"/>
<path d="M256.996 725.996C256.993 730.685 256.996 735.38 256.995 740.542C256.991 741.009 257.002 740.999 256.539 740.998C251.381 741.002 246.686 741.006 241.994 740.543C241.995 735.38 241.993 730.685 242.457 725.993C247.62 726.001 252.315 726.005 257.01 726.01C257.01 726.01 257.002 726.001 256.996 725.996Z" fill="white"/>
<path d="M53.8999 253.165C60.0505 237.476 69.3458 225.166 87.6613 222.059C92.7513 221.998 97.4424 222 102.537 222C118.763 224.01 130.028 232.33 136.973 246.611C137.911 248.539 138.76 250.511 139.788 253.218C140.318 258.678 140.709 263.382 141.066 268.442C140.031 273.576 139.03 278.355 137.857 283.437C133.466 293.028 126.885 300.134 117.603 305.129C112.493 306.841 107.742 308.499 102.531 310.145C97.3923 309.831 92.7157 309.529 87.6596 309.162C82.5585 307.392 77.837 305.686 72.9244 303.706C70.1778 301.642 67.6223 299.853 65.0108 297.724C62.6825 294.589 60.4102 291.795 58.0771 288.662C57.0335 286.57 56.0506 284.817 55.0297 282.745C53.985 277.657 52.9782 272.887 52 267.674C52.6524 262.541 53.2761 257.853 53.8999 253.165ZM75.9249 282.607C89.3741 282.549 102.824 282.392 116.272 282.507C119.43 282.534 121.714 281.881 121.808 278.5C121.993 271.844 121.926 265.178 121.779 258.52C121.754 257.404 120.806 256.308 120.252 255.133C116.194 257.02 112.624 258.681 108.712 260.5C108.26 258.451 107.93 256.952 107.569 255.316C103.77 257.118 100.305 258.762 96.6036 260.518C96.1102 258.251 95.8041 256.845 95.3507 254.763C91.1472 256.867 87.3031 258.792 83.3837 260.755C82.8565 254.91 82.3854 249.688 81.9046 244.357C79.0471 244.357 76.8125 244.357 74.4996 244.357C74.0271 249.756 73.3768 254.832 73.1895 259.925C72.9571 266.245 72.9933 272.583 73.1907 278.905C73.2297 280.154 74.5258 281.363 75.9249 282.607Z" fill="#9ED9F8"/>
<path d="M62 553.574C63.024 548.454 64.0605 543.761 65.1412 538.676C68.0383 534.132 70.3953 529.491 73.8746 525.955C77.8505 521.914 82.8248 518.855 88.0232 515.101C93.4641 513.594 98.2469 512.354 103.406 511C108.516 511.272 113.249 511.657 118.362 512.108C123.481 514.18 128.221 516.188 133.118 518.486C135.169 520.252 137.063 521.727 139.036 523.531C142.064 527.638 145.013 531.416 148 535.51C148.375 536.595 148.712 537.364 149.14 538.445C150.195 543.564 151.159 548.372 152.086 553.629C151.416 558.744 150.784 563.41 150.097 568.457C148.327 573.097 147.365 577.921 144.7 581.465C141.597 585.594 137.004 588.604 132.719 592.211C128.556 594.251 124.731 596.178 120.6 598.123C119.549 598.46 118.803 598.779 117.587 599.078C112.439 599.154 107.76 599.249 102.647 599.293C98.8569 598.542 95.1079 598.566 92.2254 596.997C85.6449 593.417 79.4887 589.057 73.1602 585.014C72.6653 584.438 72.1704 583.862 71.4282 583.141C68.9118 578.268 66.6428 573.541 64.226 568.493C63.3895 563.449 62.7009 558.725 62 553.574ZM89.5244 533.193C88.3167 533.673 87.109 534.154 84.5617 535.166C91.7774 541.071 97.9358 546.11 104.309 551.324C99.3944 555.216 94.9764 557.156 89.3312 553.958C87.7844 553.082 85.2371 553.971 83.1489 554.05C82.9822 554.718 82.8156 555.385 82.6489 556.052C84.1179 557.098 85.5869 558.143 87.1786 559.276C86.4175 560.784 85.7831 562.04 84.9784 563.634C86.7764 563.996 88.1587 564.275 89.7988 564.606C89.7988 566.576 89.7988 568.299 89.7988 570.023C90.1953 570.318 90.5917 570.612 90.9881 570.907C92.4109 569.522 94.7394 568.337 95.0995 566.715C96.6438 559.76 102.193 559.123 107.804 557.512C107.02 565.032 106.236 572.049 105.602 579.08C105.489 580.34 105.997 581.657 106.217 582.948C107.545 582.25 109.472 581.889 110.089 580.791C111.951 577.48 113.364 573.907 114.843 570.391C118.83 560.918 120.376 549.514 133.366 547.249C133.508 547.224 133.672 547.073 133.746 546.937C134.733 545.134 136.834 543.026 136.452 541.573C135.596 538.315 132.705 539.189 130.274 540.175C128.738 540.799 127.215 541.457 125.678 542.078C122.158 543.5 119.023 544.756 114.839 542.816C106.897 539.132 98.5009 536.428 89.5244 533.193Z" fill="#9ED9F8"/>
<path d="M545.168 243.092C546.09 244.353 547.013 245.613 548.206 246.716C550.017 246.059 551.534 245.3 553.106 245.162C553.973 245.087 554.931 246.056 556.1 247.215C557.714 251.845 559.634 248.496 561.318 248.254C561.861 248.088 562.403 247.922 563.084 247.506C564.295 246.936 565.368 246.616 566.931 246.522C568.327 248.949 569.233 251.15 569.824 253.541C567.418 254.772 565.326 255.814 562.81 256.905C562.099 258.311 561.636 259.659 561.575 261.025C561.506 262.555 561.801 264.101 561.549 265.737C559.492 266.574 557.823 267.315 556.707 267.81C557.202 270.861 557.575 273.168 557.565 275.506C553.766 276.906 550.35 278.275 546.581 279.748C541.852 281.712 537.474 283.57 532.701 285.476C527.482 287.579 522.659 289.634 517.479 291.775C514.966 292.515 512.81 293.169 510.671 293.818C509.683 291.811 508.826 290.072 507.813 288.015C505.764 290.168 503.954 292.071 501.828 294.098C498.05 298.106 494.587 301.991 490.789 305.78C488.098 300.265 485.743 294.846 483.357 289.085C481.716 284.865 480.106 280.989 478.502 276.715C477.641 273.796 476.775 271.275 476 269.021C482.906 268.421 489.137 267.881 495.646 267.459C496.31 267.496 496.696 267.414 497.47 267.437C498.035 266.661 498.211 265.781 498.367 264.586C498.05 263.512 497.754 262.752 497.615 261.7C500.033 260.326 502.293 259.244 504.919 258.193C509.582 256.505 513.877 254.786 518.529 253.016C520.651 252.327 522.418 251.689 524.402 251.323C528.009 250.705 531.398 249.815 534.736 248.938C535.194 249.986 535.639 251.007 536.199 252.272C536.63 252.941 536.946 253.366 537.234 254.16C537.822 255.193 538.832 256.515 538.995 256.418C540.755 255.367 542.927 254.393 543.827 252.759C544.314 251.874 542.571 249.761 541.844 248.22C541.854 248.24 541.811 248.249 541.912 247.899C543.065 246.063 544.116 244.578 545.168 243.092Z" fill="#585859"/>
<path d="M561.091 247.939C559.634 248.496 557.713 251.845 556.309 247.464C557.799 247.244 559.331 247.434 561.091 247.939Z" fill="white"/>
<path d="M536.085 252.028C535.64 251.007 535.194 249.986 534.737 248.938C531.399 249.815 528.009 250.705 524.703 251.136C527.12 249.49 529.453 248.303 531.787 247.115C532.19 247.059 532.594 247.002 533.157 246.804C537.01 245.411 540.704 244.159 544.783 243C544.117 244.578 543.065 246.063 541.527 247.85C537.996 247.663 535.782 248.237 536.085 252.028Z" fill="#4B4D50"/>
<path d="M536.199 252.272C535.781 248.237 537.995 247.663 541.425 248.2C541.81 248.25 541.853 248.24 541.912 248.619C542.774 252.925 541.343 254.66 537.262 253.791C536.946 253.366 536.629 252.941 536.199 252.272Z" fill="#FDFCFA"/>
<path d="M537.234 254.16C541.344 254.659 542.775 252.925 541.904 248.599C542.572 249.761 544.315 251.874 543.827 252.759C542.927 254.393 540.756 255.367 538.996 256.418C538.833 256.515 537.822 255.193 537.234 254.16Z" fill="#4B4D50"/>
<path d="M497.47 267.436C497.32 266.661 497.557 265.989 498.091 265.109C498.211 265.781 498.035 266.66 497.47 267.436Z" fill="white"/>
<path d="M675.022 455.764C670.994 455.848 666.967 455.932 662.02 455.989C656.726 456.009 652.35 456.056 647.713 456.076C647.348 456.353 647.245 456.658 647.078 457.416C646.923 461.197 646.833 464.525 646.482 468.096C645.887 469.466 645.552 470.59 644.914 471.827C643.397 472.362 642.184 472.784 640.736 473.161C640.501 473.116 640.031 473.206 639.614 473.13C637.79 473.089 636.383 473.125 634.738 473.11C634.501 473.06 634.026 473.161 633.689 473.076C632.894 473.042 632.436 473.092 631.536 473.08C626.524 472.855 621.953 472.693 617.585 472.304C619.208 471.747 620.628 471.416 622.422 471.033C626.972 466.994 625.868 461.861 625.872 456.707C625.616 456.344 625.325 456.235 624.592 456.044C621.761 456.017 619.37 456.072 616.518 456.071C611.378 456.053 606.7 456.089 601.623 456.044C600.143 455.914 599.062 455.865 597.932 455.412C597.595 452.893 597.069 450.779 597.055 448.662C596.94 430.376 596.918 412.09 596.88 393.853C596.893 393.903 596.792 393.883 597.047 393.835C597.531 393.543 597.76 393.3 598.385 392.971C599.858 392.932 600.935 392.979 602.298 393.328C607.386 393.429 612.188 393.227 617.453 392.954C622.614 392.93 627.313 392.978 632.298 393.328C637.386 393.429 642.188 393.227 647.453 392.954C652.613 392.93 657.311 392.978 662.295 393.328C666.626 393.894 670.672 394.158 675.022 394.442C675.022 415.249 675.022 435.506 675.022 455.764ZM600.158 451.029C624.406 451.013 648.654 450.997 673.557 450.452C673.703 449.814 673.974 449.176 673.975 448.538C674.002 433.096 674.018 417.654 673.962 402.212C673.959 401.147 673.375 400.084 672.886 398.505C672.609 398.044 672.333 397.582 671.512 396.464C660.73 396.313 649.948 396.143 639.166 396.057C638.445 396.051 637.72 396.678 636.368 397.31C635.924 397.231 635.48 397.152 634.468 396.444C623.514 396.32 612.56 396.182 601.605 396.12C601.083 396.117 600.557 396.789 599.88 397.606C599.693 397.883 599.443 398.081 598.593 397.881C598.394 398.272 598.019 398.663 598.019 399.054C597.991 415.189 597.972 431.325 598.053 447.46C598.059 448.625 598.837 449.785 600.158 451.029Z" fill="#3A3B3C"/>
<path d="M675.402 455.683C675.021 435.506 675.021 415.249 675.021 394.442C670.671 394.158 666.626 393.893 662.684 393.234C667.353 392.644 671.918 392.448 676.521 392.342C676.558 392.432 676.703 392.562 676.703 392.562C676.712 411.849 676.746 431.137 676.69 450.424C676.685 452.15 676.099 453.876 675.402 455.683Z" fill="#28292A"/>
<path d="M672.901 450.981C648.653 450.997 624.405 451.013 599.733 450.523C599.249 432.746 599.19 415.473 599.131 398.2C599.442 398.081 599.692 397.883 600.421 397.415C612.32 397.174 623.678 397.124 635.035 397.074C635.479 397.152 635.923 397.231 637.135 397.294C649.287 397.225 660.671 397.173 672.056 397.121C672.332 397.582 672.608 398.044 672.892 399.224C672.901 416.956 672.901 433.968 672.901 450.981ZM655.695 446.769L655.822 446.52C655.822 446.52 655.644 446.408 655.442 445.44C655.401 438.974 655.36 432.508 655.649 425.552C655.528 424.987 655.407 424.422 655.508 422.968C655.508 416.06 655.508 409.152 655.508 402.323C638.047 402.323 621.203 402.323 604.164 402.323C604.164 409.717 604.164 416.819 604.044 424.637C604.076 425.117 604.108 425.597 604.032 426.998C604.08 433.342 604.128 439.686 604.379 446.883C611.507 446.962 618.636 447.138 625.763 447.096C635.689 447.037 645.613 446.815 655.695 446.769ZM668.031 444.112C667.987 441.405 667.944 438.697 667.946 435.438C667.635 435.322 667.323 435.206 666.141 434.969C664.093 435.012 662.045 435.056 659.122 435.264C659.122 438.981 659.122 442.698 659.122 447.346C662.446 446.459 665.173 445.731 668.031 444.112ZM667.706 420.646C667.706 414.567 667.706 408.489 667.706 402.327C664.701 402.327 661.979 402.327 659.12 402.327C659.12 409.066 659.12 415.505 658.847 422.846C658.847 426.112 658.847 429.377 658.847 432.846C662.041 432.846 664.764 432.846 668.363 432.846C667.885 428.778 667.436 424.967 667.706 420.646Z" fill="#F6F7F7"/>
<path d="M597.931 455.412C597.62 455.825 597.26 455.834 596.626 455.853C596.066 448.246 595.629 440.63 595.531 433.01C595.39 422.023 595.461 411.033 595.526 400.044C595.537 398.082 595.952 396.123 596.524 393.983C596.917 412.09 596.939 430.376 597.055 448.662C597.068 450.779 597.594 452.892 597.931 455.412Z" fill="#28292A"/>
<path d="M598.862 398.041C599.19 415.473 599.249 432.745 599.281 450.483C598.836 449.785 598.058 448.624 598.053 447.46C597.971 431.325 597.991 415.189 598.018 399.054C598.019 398.662 598.393 398.272 598.862 398.041Z" fill="#1E1D1D"/>
<path d="M673.23 450.716C672.902 433.968 672.902 416.956 672.981 399.482C673.375 400.084 673.959 401.147 673.963 402.212C674.019 417.654 674.002 433.096 673.975 448.538C673.974 449.176 673.703 449.814 673.23 450.716Z" fill="#1E1D1D"/>
<path d="M671.783 396.792C660.671 397.173 649.287 397.225 637.449 397.144C637.719 396.678 638.444 396.051 639.165 396.057C649.947 396.143 660.729 396.313 671.783 396.792Z" fill="#1E1D1D"/>
<path d="M634.752 396.759C623.678 397.124 612.321 397.174 600.498 397.186C600.556 396.79 601.083 396.117 601.605 396.12C612.56 396.182 623.514 396.321 634.752 396.759Z" fill="#1E1D1D"/>
<path d="M632.297 393.328C636.745 392.964 641.48 392.902 646.602 392.933C642.188 393.228 637.385 393.429 632.297 393.328Z" fill="#28292A"/>
<path d="M602.297 393.328C606.745 392.964 611.48 392.902 616.602 392.933C612.188 393.228 607.385 393.429 602.297 393.328Z" fill="#28292A"/>
<path d="M634.738 473.11C634.818 473.56 634.661 473.96 634.504 474.359C634.352 474.115 634.201 473.871 634.037 473.394C634.026 473.161 634.501 473.06 634.738 473.11Z" fill="white"/>
<path d="M640.735 473.161C640.815 473.596 640.659 473.986 640.503 474.377C640.353 474.139 640.203 473.901 640.041 473.434C640.03 473.206 640.5 473.116 640.735 473.161Z" fill="white"/>
<path d="M625.87 456.707C625.558 456.893 625.339 456.742 625.105 456.316C625.324 456.235 625.615 456.344 625.87 456.707Z" fill="white"/>
<path d="M647.711 456.076C647.919 456.395 647.77 456.625 647.333 456.878C647.244 456.658 647.347 456.354 647.711 456.076Z" fill="white"/>
<path d="M597.046 393.834C597.005 393.59 597.219 393.296 597.711 393.03C597.759 393.3 597.53 393.543 597.046 393.834Z" fill="#28292A"/>
<path d="M604.164 423.922C604.164 416.819 604.164 409.716 604.164 402.323C621.203 402.323 638.047 402.323 655.508 402.323C655.508 409.152 655.508 416.06 655.035 423.45C652.43 424.287 650.299 424.642 648.146 425.001C647.989 423.095 647.824 421.098 647.651 418.992C641.657 422.69 636.265 426.017 630.677 429.465C630.677 424.574 630.677 419.588 630.677 414.109C624.975 418.252 621.854 425.823 613.314 424.245C613.187 422.41 613.055 420.516 612.941 418.865C609.876 420.63 607.02 422.276 604.164 423.922Z" fill="#3A3B3C"/>
<path d="M604.175 446.03C604.127 439.686 604.079 433.342 604.365 426.396C606.718 425.227 608.738 424.66 611.183 423.974C611.183 426.026 611.183 428.196 611.183 430.203C617.279 426.683 623.071 423.339 629.333 419.724C629.333 424.74 629.333 429.569 629.333 435.598C632.453 432.303 634.449 429.483 637.107 427.596C639.632 425.803 642.85 424.986 646.173 423.564C646.173 426.16 646.173 428.246 646.173 430.12C648.853 428.692 651.392 427.338 653.955 426.453C653.985 431.085 653.996 435.249 653.996 439.413C653.996 445.991 653.992 445.992 647.644 445.997C633.154 446.009 618.665 446.019 604.175 446.03Z" fill="#3A3B3C"/>
<path d="M653.932 425.985C651.392 427.338 648.853 428.692 646.173 430.12C646.173 428.246 646.173 426.16 646.173 423.564C642.85 424.986 639.632 425.803 637.107 427.596C634.449 429.483 632.454 432.303 629.333 435.598C629.333 429.569 629.333 424.74 629.333 419.724C623.071 423.339 617.279 426.683 611.183 430.203C611.183 428.196 611.183 426.026 611.183 423.974C608.738 424.66 606.718 425.227 604.419 425.935C604.107 425.597 604.076 425.117 604.104 424.279C607.02 422.276 609.876 420.63 612.94 418.865C613.055 420.516 613.186 422.41 613.313 424.246C621.853 425.823 624.974 418.252 630.676 414.109C630.676 419.588 630.676 424.574 630.676 429.465C636.264 426.017 641.657 422.69 647.65 418.992C647.824 421.098 647.988 423.095 648.145 425.001C650.298 424.643 652.43 424.288 654.923 423.895C655.406 424.422 655.527 424.987 655.291 425.685C654.599 425.874 654.265 425.93 653.932 425.985Z" fill="#D96D55"/>
<path d="M659.121 421.944C659.121 415.505 659.121 409.066 659.121 402.327C661.98 402.327 664.701 402.327 667.706 402.327C667.706 408.488 667.706 414.567 667.059 420.904C663.982 421.422 661.552 421.683 659.121 421.944Z" fill="#1FA4AC"/>
<path d="M658.984 422.395C661.552 421.684 663.982 421.423 666.701 421.159C667.437 424.967 667.885 428.778 668.364 432.846C664.765 432.846 662.042 432.846 658.848 432.846C658.848 429.377 658.848 426.112 658.984 422.395Z" fill="#E55F43"/>
<path d="M667.901 435.99C667.945 438.697 667.988 441.405 667.524 444.552C664.777 444.88 662.538 444.768 659.998 444.641C659.998 441.059 659.998 438.079 659.998 435.099C662.046 435.056 664.094 435.012 666.67 435.228C667.374 435.736 667.609 435.903 667.901 435.99Z" fill="#393A3C"/>
<path d="M653.955 426.453C654.266 425.93 654.6 425.874 655.126 425.931C655.36 432.508 655.401 438.974 655.424 445.949C655.406 446.458 655.538 446.662 655.538 446.662C645.613 446.815 635.689 447.037 625.764 447.096C618.636 447.138 611.508 446.962 604.277 446.456C618.665 446.019 633.155 446.009 647.645 445.997C653.993 445.992 653.996 445.991 653.996 439.413C653.997 435.249 653.985 431.085 653.955 426.453Z" fill="#1E1D1D"/>
<path d="M659.561 435.182C659.998 438.079 659.998 441.059 659.998 444.641C662.538 444.768 664.777 444.88 667.459 444.997C665.174 445.731 662.447 446.459 659.123 447.346C659.123 442.698 659.123 438.981 659.561 435.182Z" fill="#353638"/>
<path d="M655.616 446.715C655.537 446.662 655.405 446.457 655.524 446.432C655.644 446.407 655.822 446.52 655.822 446.52C655.822 446.52 655.694 446.769 655.616 446.715Z" fill="#D96D55"/>
<path d="M667.923 435.714C667.607 435.904 667.373 435.736 667.104 435.289C667.322 435.206 667.634 435.322 667.923 435.714Z" fill="#353638"/>
<path d="M226.996 725.996C226.993 730.685 226.996 735.38 226.995 740.542C226.991 741.009 227.002 740.999 226.539 740.998C221.381 741.002 216.686 741.006 211.994 740.543C211.995 735.38 211.993 730.685 212.457 725.993C217.62 726.001 222.315 726.005 227.01 726.01C227.01 726.01 227.002 726.001 226.996 725.996Z" fill="white"/>
<path d="M668.286 133.023C670.688 135.811 673.09 138.599 675.701 142.032C685.282 157.075 684.926 171.852 677.573 187.208C671.671 197.118 663.419 203.875 652.389 207.996C647.104 208.695 642.229 209.365 636.898 210C631.553 209.319 626.665 208.673 621.413 207.953C610.242 203.646 601.783 196.796 596.006 186.533C588.539 171.084 589.597 156.37 598.034 141.982C601.425 137.899 604.28 133.187 608.371 129.923C611.87 127.13 616.785 125.999 621.443 124.055C626.695 122.993 631.578 122.008 636.891 121C642.219 121.985 647.117 122.992 652.43 124.025C654.964 125.025 657.084 125.998 659.778 127.27C662.996 129.387 665.641 131.205 668.286 133.023ZM646.454 153.237C648.506 149.016 650.558 144.794 652.99 139.788C646.042 140.239 640.082 140.525 634.152 141.107C633.11 141.209 631.586 142.389 631.321 143.342C629.025 151.595 626.965 159.909 624.759 168.502C627.467 168.83 629.616 169.091 632.334 169.421C630.503 175.709 628.648 181.673 627.091 187.71C626.702 189.218 627.275 190.959 627.406 192.593C628.747 191.74 630.406 191.14 631.376 189.993C636.682 183.72 641.855 177.34 646.994 170.937C648.609 168.924 649.978 166.726 652.028 163.803C647.908 163.803 644.902 163.803 641.052 163.803C642.967 160.048 644.533 156.977 646.454 153.237Z" fill="#9ED9F8"/>
<path d="M531.972 18.1706C532.442 19.0122 532.912 19.8539 533.693 21.2293C535.715 26.4906 537.428 31.2181 539.142 36.365C539.383 41.483 539.623 46.1816 539.605 51.1658C537.912 56.3016 536.475 61.1517 534.875 66.2848C533.804 68.0546 532.897 69.5414 531.687 71.1698C528.265 74.5379 525.146 77.7644 521.718 81.121C519.937 82.1609 518.465 83.071 516.627 84.0213C511.523 85.7443 506.786 87.427 501.583 89.0736C496.401 88.7245 491.685 88.4115 486.582 88.0645C481.455 86.3426 476.715 84.6547 471.726 82.7829C470.663 82.0641 469.849 81.5291 468.892 80.6872C464.848 76.2028 460.948 72.0253 456.945 67.6105C456.579 66.9305 456.316 66.4878 456.028 65.6698C454.643 60.5464 453.281 55.7983 451.807 50.6527C451.765 45.4937 451.837 40.7321 451.976 35.5919C453.72 30.4894 455.398 25.7657 457.056 21.0515C457.036 21.061 457.07 21.0963 457.379 20.9508C462.478 15.8778 467.268 10.9504 472.058 6.02289C472.058 6.02289 472.018 6.0202 472.026 6.04126C476.747 4.37505 481.462 2.68774 486.563 0.940842C491.71 0.907243 496.47 0.933258 501.65 0.92041C506.8 2.26225 511.531 3.64296 516.628 5.0994C517.467 5.44557 517.939 5.716 518.844 6.31067C523.509 10.4801 527.74 14.3253 531.972 18.1706ZM525.883 46.1004C525.202 45.4352 524.62 44.3677 523.823 44.1709C519.013 42.9827 514.105 42.1655 509.336 40.8438C507.702 40.3907 505.683 39.1573 505.03 37.7341C503.033 33.3823 501.781 28.6927 499.872 24.2942C499.283 22.9393 497.563 21.2397 496.278 21.1674C490.467 20.8404 484.626 20.976 478.799 21.1154C477.878 21.1375 476.977 22.0323 475.31 22.9318C482.434 26.2225 479.457 31.7024 479.701 34.5703C476.077 38.2178 472.484 40.4487 471.045 43.6485C469.403 47.3017 469.089 51.842 469.259 55.9528C469.522 62.268 473.542 65.8171 479.371 66.0076C487.726 66.2807 490.825 62.9171 491.125 53.0851C494.955 53.2746 498.779 53.4639 502.603 53.6531C502.598 53.9352 502.594 54.2174 502.589 54.4995C499.069 54.8655 495.549 55.2315 492.028 55.5975C492.114 56.2469 492.199 56.8963 492.285 57.5457C495.666 57.5457 499.047 57.5457 502.824 57.5457C502.595 61.6171 504.442 65.0794 509.347 65.8967C514.412 66.7408 517.488 64.2684 519.302 59.5935C519.696 58.5786 521.469 57.3878 522.515 57.4685C525.803 57.7222 526.076 55.8985 526.016 53.4721C525.963 51.3079 525.991 49.1418 525.883 46.1004Z" fill="#9ED9F8"/>
<path d="M525.934 46.5386C525.992 49.142 525.964 51.3081 526.017 53.4723C526.077 55.8987 525.803 57.7224 522.515 57.4687C521.47 57.388 519.697 58.5788 519.303 59.5937C517.489 64.2686 514.412 66.741 509.347 65.8969C504.443 65.0796 502.596 61.6173 502.824 57.5459C499.047 57.5459 495.666 57.5459 492.285 57.5459C492.2 56.8965 492.115 56.2471 492.029 55.5977C495.549 55.2317 499.07 54.8657 502.59 54.4997C502.594 54.2176 502.599 53.9354 502.604 53.6533C498.78 53.4641 494.956 53.2748 491.125 53.0853C490.826 62.9173 487.727 66.2809 479.372 66.0078C473.543 65.8173 469.522 62.2682 469.26 55.953C469.089 51.8422 469.404 47.3019 471.046 43.6487C472.484 40.4489 476.078 38.218 479.702 34.5705C479.458 31.7026 482.435 26.2227 475.311 22.932C476.978 22.0325 477.878 21.1377 478.8 21.1156C484.626 20.9762 490.468 20.8406 496.278 21.1676C497.563 21.2399 499.284 22.9395 499.872 24.2944C501.782 28.6929 503.033 33.3825 505.03 37.7343C505.683 39.1575 507.702 40.3909 509.337 40.844C514.106 42.1657 519.013 42.9829 523.823 44.1711C524.62 44.3679 525.202 45.4354 525.934 46.5386ZM497.839 29.5425C497.238 28.0596 496.638 26.5767 496.139 25.3457C492.02 25.3457 488.269 25.3457 484.471 25.3457C484.471 30.3621 484.471 35.0277 484.471 39.5834C490.156 39.5834 495.371 39.5834 501.292 39.5834C500.102 36.1205 499.102 33.2115 497.839 29.5425ZM478.201 49.4987C473.919 52.1233 472.63 55.8534 474.89 59.19C476.846 62.0777 479.893 63.1532 482.596 61.3778C484.564 60.0856 486.77 57.0083 486.542 54.989C486.126 51.2901 483.572 48.3565 478.201 49.4987ZM506.282 58.2695C507.323 61.4537 509.589 63.2318 512.549 61.4422C513.834 60.6652 514.047 57.7493 514.225 55.7583C514.27 55.2523 512.012 53.8289 511.346 54.1067C509.478 54.8856 507.889 56.3328 506.282 58.2695Z" fill="white"/>
<path d="M497.97 29.9225C499.101 33.2115 500.101 36.1206 501.291 39.5835C495.371 39.5835 490.155 39.5835 484.471 39.5835C484.471 35.0277 484.471 30.3621 484.471 25.3457C488.268 25.3457 492.019 25.3457 496.139 25.3457C496.637 26.5768 497.238 28.0596 497.97 29.9225Z" fill="#9ED9F8"/>
<path d="M478.564 49.3435C483.572 48.3567 486.126 51.2903 486.543 54.9892C486.77 57.0085 484.564 60.0858 482.596 61.378C479.893 63.1534 476.846 62.078 474.89 59.1902C472.63 55.8536 473.919 52.1235 478.564 49.3435Z" fill="#A3DBF8"/>
<path d="M506.236 57.8931C507.889 56.333 509.478 54.8858 511.346 54.1069C512.012 53.8291 514.27 55.2524 514.225 55.7584C514.047 57.7495 513.835 60.6654 512.55 61.4424C509.59 63.2319 507.324 61.4539 506.236 57.8931Z" fill="#A3DBF8"/>
<path d="M339.219 454.734C334.045 453.785 329.28 452.936 323.751 452.072C322.018 451.848 321.049 451.638 319.671 451.348C318.433 451.279 317.604 451.291 316.485 451.108C314.224 450.561 312.252 450.21 310.131 449.533C309.606 448.613 309.23 448.019 309 447.154C309.448 445.922 309.751 444.962 310.343 443.941C311.354 443.242 312.074 442.604 313.138 442.179C323.674 444.007 333.869 445.622 344.024 447.229C345.328 439.07 346.529 431.551 347.837 423.61C348.47 419.943 348.997 416.698 349.595 413.16C349.919 410.961 350.171 409.056 350.501 406.714C351.225 402.316 351.869 398.357 352.533 394.278C343.527 392.788 334.991 391.223 326.398 390.087C324.779 389.873 321.95 390.928 321.406 392.159C320.351 394.548 320.523 397.478 320.088 400.532C319.291 404.938 318.593 408.994 317.816 413.391C317.049 417.105 316.36 420.479 315.673 423.48C315.099 421.719 314.524 420.331 313.858 418.943C313.767 418.943 313.612 419.038 313.661 418.626C314.489 412.752 315.267 407.29 316.021 401.738C315.996 401.648 315.813 401.688 316.11 401.511C316.493 400.895 316.578 400.457 316.752 399.657C316.834 398.553 316.828 397.81 317.07 396.901C317.403 396.164 317.487 395.593 317.643 394.665C317.944 393.163 318.174 392.018 318.474 390.471C318.699 386.718 319.074 383.553 324.014 384.052C325.239 384.126 326.138 384.104 327.201 384.376C327.794 384.735 328.224 384.801 329.025 384.945C330.37 385.21 331.343 385.399 332.726 385.668C333.963 385.732 334.792 385.715 335.909 385.854C337.004 386.104 337.812 386.2 338.988 386.451C344.128 387.349 348.9 388.092 353.672 388.835C353.672 388.835 354.077 389.03 354.489 389.421C355.204 391.515 355.812 393.232 355.741 394.92C355.612 397.958 355.077 400.978 354.54 404.349C354.086 406.432 353.805 408.172 353.225 410.123C352.891 411.552 352.857 412.769 352.714 414.168C352.606 414.349 352.62 414.771 352.334 415.014C352.016 416.504 351.984 417.751 351.729 419.371C349.941 429.495 348.375 439.245 346.809 448.995C346.929 454.033 344.538 455.983 339.219 454.734Z" fill="#393A3C"/>
<path d="M423.732 603.642C426.056 608.538 428.105 613.274 430.333 618.763C430.728 625.157 431.402 630.83 431.009 636.428C430.716 640.593 429.039 644.66 427.733 648.981C422.015 658.884 414.2 666.05 403.769 670.824C398.655 671.851 393.93 672.868 388.753 673.849C383.567 673.18 378.834 672.546 373.732 671.855C368.644 669.406 363.925 667.014 359.115 664.428C358.849 663.995 358.618 663.837 358.134 663.479C349.285 655.287 343.727 645.804 343 633.588C343.081 628.523 343.197 623.72 343.556 618.686C343.94 617.582 344.083 616.708 344.495 615.619C346.587 611.552 348.41 607.699 350.526 603.685C353.651 600.33 356.481 597.137 359.653 593.862C362.735 592.135 365.478 590.49 368.59 588.792C380.552 583.183 392.328 584.621 404.15 587.814C404.628 588.129 405.105 588.443 406.077 589.06C410.765 592.179 414.958 594.995 419.151 597.811C420.586 599.701 422.021 601.592 423.732 603.642ZM407.614 636.052C411.834 632.89 411.264 627.404 409.546 624.739C406.232 619.6 399.653 623.595 394.165 621.985C394.165 619.689 394.166 617.233 394.165 614.777C394.164 606.708 394.164 606.708 385.872 606.786C385.539 606.789 385.203 606.814 384.873 606.783C381.488 606.456 379.956 607.865 380.13 611.376C380.309 614.976 380.17 618.592 380.17 622.439C377.961 622.439 376.352 622.448 374.742 622.436C373.124 622.423 371.489 622.523 369.889 622.339C365.344 621.814 364.156 624.334 364.088 628.253C363.978 634.628 365.086 636.504 369.77 636.742C373.042 636.909 376.328 636.774 380.168 636.774C380.168 640.514 380.359 643.644 380.125 646.742C379.727 652.022 382.971 652.593 387.054 652.828C391.476 653.084 394.208 651.825 394.167 646.923C394.14 643.669 394.162 640.415 394.162 637.064C398.924 636.83 402.884 636.635 407.614 636.052Z" fill="#9ED9F8"/>
<path d="M347.732 424.032C346.53 431.551 345.329 439.07 344.026 447.23C333.87 445.622 323.676 444.008 313.172 441.781C313.527 437.449 314.192 433.73 315.261 430.001C326.355 428.005 337.043 426.019 347.732 424.032Z" fill="#FAD45A"/>
<path d="M347.837 423.61C337.042 426.019 326.353 428.005 315.247 429.612C315.11 427.44 315.39 425.646 315.671 423.852C316.359 420.479 317.048 417.105 318.271 413.378C322.629 413.019 326.454 412.96 330.277 413.021C336.693 413.125 343.108 413.305 349.523 413.453C348.996 416.698 348.47 419.943 347.837 423.61Z" fill="#9ED9F8"/>
<path d="M320.188 400.183C320.524 397.478 320.352 394.548 321.407 392.159C321.951 390.928 324.78 389.873 326.398 390.087C334.991 391.224 343.528 392.788 352.534 394.278C351.87 398.357 351.226 402.316 350.121 406.664C347.758 406.591 345.859 406.112 343.951 405.67C336.031 403.835 328.109 402.011 320.188 400.183Z" fill="#F3B89A"/>
<path d="M320.09 400.533C328.11 402.012 336.032 403.836 343.952 405.671C345.859 406.113 347.759 406.591 350.043 407.102C350.172 409.057 349.921 410.961 349.597 413.16C343.11 413.306 336.695 413.125 330.279 413.021C326.456 412.96 322.631 413.019 318.352 413.037C318.594 408.995 319.293 404.938 320.09 400.533Z" fill="#97CDAC"/>
<path d="M310.344 443.941C310.593 439.565 311.132 435.129 311.984 430.07C312.451 426.96 312.606 424.474 312.76 421.987C313.123 421.193 313.486 420.4 313.899 419.275C314.525 420.331 315.1 421.719 315.674 423.48C315.391 425.646 315.111 427.44 314.843 429.622C314.191 433.73 313.526 437.449 312.829 441.567C312.075 442.604 311.354 443.242 310.344 443.941Z" fill="#353638"/>
<path d="M317.072 396.901C316.878 396.406 316.933 395.745 317.28 395.053C317.489 395.593 317.404 396.164 317.072 396.901Z" fill="#F6F7F7"/>
<path d="M332.727 385.668C333.343 385.378 334.368 385.169 335.507 385.33C334.793 385.716 333.964 385.732 332.727 385.668Z" fill="white"/>
<path d="M316.111 401.511C315.928 401.269 316.043 400.851 316.411 400.225C316.58 400.457 316.494 400.895 316.111 401.511Z" fill="#F6F7F7"/>
<path d="M327.201 384.376C327.437 384.191 327.837 384.299 328.446 384.637C328.224 384.801 327.794 384.735 327.201 384.376Z" fill="white"/>
<path d="M175.651 721C172.479 717.015 169.306 713.031 165.713 708.546C163.672 705.293 162.052 702.539 160.433 699.785C159.64 698.198 158.848 696.611 157.705 694.486C155.444 689.177 153.533 684.405 151.635 679.207C151.218 674.028 150.788 669.276 150.432 664.176C152.545 659.097 154.584 654.366 156.918 649.511C158.338 648.456 159.463 647.524 160.908 646.44C165.674 645.024 170.12 643.761 174.998 642.544C180.153 643.948 184.876 645.306 189.794 646.919C191.529 648.326 193.072 649.479 194.645 650.99C196.651 656.788 198.624 662.227 200.546 668.058C199.861 671.834 199.227 675.217 198.335 678.857C196.526 683.809 194.976 688.504 193.168 693.447C187.157 702.796 181.404 711.898 175.651 721ZM177.822 654.818C176.8 654.871 175.778 654.924 173.971 654.812C167.827 655.411 164.404 658.455 162.518 665.25C161.001 674.693 167.152 680.173 179.202 679.506C186.846 676.191 189.454 670.263 186.384 661.972C184.141 659.852 181.898 657.732 179.4 655.235C179.183 654.976 178.91 654.884 177.822 654.818Z" fill="#97CDAC"/>
<path d="M161.46 347.385C161.95 347.549 162.187 347.762 162.546 348.388C162.425 358.587 162.239 368.309 162.041 378.449C162.049 379.425 162.068 379.984 162.152 380.905C162.196 382.737 162.175 384.207 161.849 385.774C161.342 385.941 161.141 386.012 160.483 386.064C156.319 385.952 152.611 385.858 148.908 385.432C148.592 384.352 148.273 383.603 147.795 382.633C147.057 382.005 146.477 381.597 145.809 380.812C144.151 380.649 142.583 380.862 141.011 381.042C141.008 381.008 141.071 381.034 140.766 381.031C140.318 381.376 140.175 381.724 140.019 382.04C140.006 382.008 140.073 382.026 139.716 382.065C138.878 383.391 138.398 384.678 137.495 385.969C135.385 385.97 133.698 385.968 132.003 385.548C131.949 383.738 131.901 382.346 131.853 380.955C130.919 373.275 137.835 371.622 142.364 367.796C142.786 367.78 143.028 368.031 142.865 368.368C140.94 372.631 143.556 372.632 146.263 372.859C149.748 373.151 153.211 373.706 157.356 374.233C157.542 371.091 157.796 366.795 158.098 361.693C154.133 362.246 151.111 362.667 147.953 362.955C147.817 362.821 147.539 362.562 147.539 362.562C149.293 360.903 150.935 359.58 151.336 356.611C152.048 351.347 156.319 348.878 161.46 347.385Z" fill="#E69C82"/>
<path d="M143.52 366.554C143.68 366.261 143.888 366.008 144.466 365.788C144.787 365.78 145.03 366.03 144.928 366.254C144.627 366.758 144.362 366.942 143.905 366.908C143.78 366.787 143.52 366.554 143.52 366.554Z" fill="#E69C82"/>
<path d="M144.672 365.65C144.728 365.252 144.931 365.009 145.476 364.786C145.788 364.78 146.031 365.03 145.929 365.254C145.628 365.758 145.363 365.942 145.031 366.03C145.031 366.03 144.788 365.78 144.672 365.65Z" fill="#E69C82"/>
<path d="M145.672 364.65C145.729 364.252 145.932 364.009 146.477 363.786C146.789 363.781 147.031 364.031 146.929 364.255C146.628 364.759 146.363 364.943 146.031 365.031C146.031 365.031 145.788 364.78 145.672 364.65Z" fill="#E69C82"/>
<path d="M146.674 363.651C146.729 363.262 146.933 363.033 147.355 362.697C147.54 362.562 147.819 362.821 147.837 363.171C147.631 363.772 147.356 363.942 147.03 364.03C147.03 364.03 146.789 363.781 146.674 363.651Z" fill="#E69C82"/>
<path d="M142.672 367.65C142.719 367.258 142.918 367.026 143.336 366.69C143.52 366.554 143.78 366.787 143.803 367.133C143.627 367.759 143.362 367.943 143.03 368.03C143.03 368.03 142.788 367.78 142.672 367.65Z" fill="#E69C82"/>
<path d="M211.604 347.271C212.912 348.221 213.91 349.285 214.945 351.142C214.994 356.622 215.006 361.309 214.982 366.456C214.863 370.61 214.78 374.304 214.247 377.998C196.549 378.009 179.301 378.021 162.053 378.032C162.239 368.31 162.425 358.587 162.765 348.49C169.036 347.878 175.153 347.64 181.582 347.31C190.09 347.394 198.285 347.597 206.482 347.729C208.084 347.755 209.69 347.505 211.604 347.271ZM194.755 356.946C196.248 357.588 197.691 358.495 199.25 358.793C200.642 359.058 202.163 358.652 203.627 358.542C203.608 358.051 203.588 357.561 203.568 357.071C202.029 356.148 200.47 355.257 198.955 354.296C192.191 350.006 180.987 350.645 174.801 355.481C172.596 357.205 172.37 358.395 174.856 359.891C175.521 360.291 176.097 360.97 176.502 361.648C177.747 363.734 178.826 364.146 181.232 362.677C185.606 360.006 190.319 360.315 195.005 362.551C196.273 363.156 198.013 362.771 199.536 362.841C199.636 362.301 199.736 361.761 199.836 361.221C197.89 359.817 195.944 358.412 194 357C194 357 194.006 356.999 194.755 356.946ZM191.821 367.397C193.166 366.958 194.511 366.52 196.62 365.833C189.131 361.014 184.809 361.123 179.339 366.547C181.944 366.762 183.521 366.951 185.102 367.007C187.121 367.078 189.145 367.042 191.821 367.397ZM187.586 368.042C186.787 369.05 185.988 370.058 185.189 371.066C186.198 371.713 187.176 372.788 188.225 372.863C188.96 372.915 190.537 371.441 190.427 370.933C190.196 369.868 189.1 368.99 187.586 368.042Z" fill="#F3B89A"/>
<path d="M162.156 385.677C162.177 384.207 162.198 382.737 162.41 380.796C162.74 380.204 162.879 380.082 163.482 380.019C175.62 380.025 187.293 379.972 199.347 379.988C200.495 380.012 201.263 379.965 202.487 379.979C206.461 380.049 209.979 380.059 213.429 380.027C213.362 379.986 213.268 380.113 213.181 380.472C213.137 381.075 213.18 381.319 213.1 381.783C212.181 382.567 211.386 383.131 210.225 383.565C208.069 384.051 205.383 383.671 205.591 386.855C205.206 383.719 204.538 380.941 200.746 381.169C197.343 381.374 196.515 383.737 197.135 386.81C197.229 387.277 197.088 387.791 196.749 388.183C196.236 387.709 196.03 387.335 195.852 386.715C195.697 386.107 195.415 385.998 194.581 386.031C190.08 385.979 186.033 386.037 181.525 386.033C176.381 386.012 171.698 386.054 166.619 386.006C164.866 385.837 163.511 385.757 162.156 385.677Z" fill="#28292A"/>
<path d="M142.866 368.368C143.361 367.943 143.627 367.759 143.928 367.254C144.362 366.942 144.627 366.758 144.928 366.254C145.362 365.942 145.627 365.758 145.928 365.254C146.362 364.942 146.627 364.758 146.928 364.254C147.356 363.942 147.631 363.772 147.972 363.304C151.112 362.667 154.134 362.246 158.099 361.693C157.797 366.795 157.543 371.091 157.357 374.233C153.212 373.706 149.749 373.151 146.264 372.859C143.557 372.632 140.941 372.631 142.866 368.368Z" fill="#4B4D50"/>
<path d="M202.031 379.919C201.263 379.965 200.495 380.012 199.046 379.705C187.641 379.238 176.917 379.096 166.193 379.052C165.136 379.048 164.076 379.644 163.018 379.961C162.879 380.082 162.74 380.204 162.345 380.434C162.07 379.984 162.051 379.426 162.043 378.449C179.302 378.021 196.551 378.009 214.284 378.367C214.268 379.195 213.768 379.654 213.268 380.114C213.268 380.114 213.362 379.986 213.049 379.801C209.168 379.717 205.6 379.818 202.031 379.919Z" fill="#B8BABA"/>
<path d="M145.898 381.189C146.478 381.597 147.058 382.005 147.535 382.92C147.3 384.975 147.167 386.524 147.034 388.072C147.034 388.072 147.01 388.006 146.724 387.996C146.301 388.35 146.164 388.714 146.027 389.077C146.027 389.077 146.008 389.009 145.638 388.953C139.616 389.57 139.919 385.742 140.074 382.026C140.074 382.026 140.007 382.008 140.365 382.115C140.84 381.826 140.956 381.43 141.072 381.034C141.072 381.034 141.009 381.008 141.405 381.177C143.167 381.294 144.533 381.242 145.898 381.189Z" fill="#DCDEDF"/>
<path d="M139.717 382.065C139.92 385.742 139.617 389.57 145.671 388.966C142.047 392.602 140.327 389.173 138.139 386.229C138.399 384.678 138.879 383.391 139.717 382.065Z" fill="#424345"/>
<path d="M147.4 388.147C147.167 386.524 147.3 384.975 147.694 383.141C148.274 383.603 148.594 384.352 148.909 385.432C148.525 386.583 148.145 387.402 147.4 388.147Z" fill="#424345"/>
<path d="M145.81 380.812C144.533 381.242 143.167 381.294 141.408 381.212C142.584 380.863 144.152 380.649 145.81 380.812Z" fill="#424345"/>
<path d="M140.767 381.031C140.957 381.43 140.84 381.826 140.379 382.147C140.177 381.724 140.319 381.377 140.767 381.031Z" fill="#424345"/>
<path d="M194 357.007C195.946 358.412 197.892 359.817 199.837 361.221C199.737 361.761 199.637 362.301 199.537 362.841C198.014 362.771 196.274 363.156 195.007 362.551C190.32 360.314 185.607 360.006 181.233 362.676C178.828 364.145 177.748 363.734 176.503 361.647C176.099 360.97 175.523 360.291 174.858 359.891C172.372 358.395 172.597 357.205 174.803 355.481C180.989 350.645 192.192 350.006 198.957 354.296C200.472 355.257 202.031 356.148 203.57 357.071C203.589 357.561 203.609 358.051 203.629 358.541C202.165 358.651 200.644 359.058 199.251 358.792C197.692 358.495 196.25 357.588 194.217 356.618C188.314 353.858 182.059 354.902 179.525 358.069C183.975 357.743 188.987 357.375 194 357.007Z" fill="white"/>
<path d="M191.494 367.224C189.145 367.042 187.122 367.078 185.102 367.007C183.521 366.951 181.944 366.761 179.34 366.547C184.809 361.122 189.131 361.014 196.62 365.832C194.512 366.519 193.167 366.958 191.494 367.224Z" fill="#F6F7F7"/>
<path d="M187.973 368.039C189.101 368.99 190.196 369.868 190.428 370.933C190.538 371.441 188.961 372.915 188.226 372.863C187.176 372.788 186.198 371.713 185.189 371.066C185.988 370.058 186.787 369.05 187.973 368.039Z" fill="white"/>
<path d="M205.59 386.855C204.027 390.499 201.091 390.433 197.448 389.178C197.07 389.194 197.023 388.739 197.039 388.511C197.088 387.791 197.229 387.277 197.135 386.81C196.515 383.737 197.343 381.374 200.746 381.169C204.537 380.941 205.205 383.719 205.59 386.855Z" fill="#DCDEDF"/>
<path d="M163.482 380.019C164.076 379.643 165.136 379.047 166.193 379.052C176.917 379.096 187.642 379.237 198.666 379.635C187.294 379.972 175.62 380.025 163.482 380.019Z" fill="#C8CECF"/>
<path d="M202.486 379.978C205.599 379.817 209.167 379.716 213.116 379.842C209.978 380.059 206.46 380.049 202.486 379.978Z" fill="#C8CECF"/>
<path d="M195.852 386.715C195.561 386.881 195.35 386.728 195.113 386.323C195.415 385.998 195.697 386.107 195.852 386.715Z" fill="white"/>
<path d="M146.412 389.232C146.163 388.714 146.3 388.351 146.756 388.01C146.982 388.484 146.89 388.936 146.412 389.232Z" fill="#424345"/>
<path d="M193.999 357.004C188.986 357.375 183.974 357.743 179.523 358.069C182.058 354.902 188.313 353.858 193.842 356.644C194.007 356.999 194 357 193.999 357.004Z" fill="#EBBF9C"/>
<path d="M406.544 365.993C407.007 370.685 407.003 375.38 406.995 380.542C406.991 381.009 407.002 380.999 406.539 380.998C401.381 380.995 396.686 380.992 391.995 380.994C392 380.999 392.01 381.009 392.01 381.009C392.006 376.314 392.002 371.619 391.994 366.457C396.686 365.992 401.381 365.994 406.544 365.993Z" fill="white"/>
<path d="M570.924 584.517C576.297 584.522 581.669 584.526 587.507 584.503C588.22 584.531 588.468 584.586 589.006 585.216C589.33 587.222 589.364 588.654 589.398 590.086C589.336 595.393 589.273 600.701 589.206 606.922C589.268 611.915 589.333 615.994 589.304 620.527C589.273 626.291 589.336 631.602 589.3 637.36C589.132 640.537 589.062 643.267 588.645 646.001C587.521 645.943 586.743 645.88 586.87 645.891C587.281 643.769 587.944 641.919 587.953 640.065C588.034 623.942 587.822 607.815 588.105 591.697C588.187 587.068 586.853 585.666 582.271 585.866C578.515 586.03 574.708 585.011 570.924 584.517Z" fill="#585859"/>
<path d="M570.56 584.372C574.708 585.011 578.515 586.03 582.27 585.866C586.852 585.666 588.186 587.068 588.105 591.697C587.821 607.815 588.033 623.942 587.953 640.065C587.943 641.919 587.281 643.769 586.869 645.891C586.743 645.88 587.521 645.943 588.697 646.252C589.039 646.659 588.983 646.82 588.602 646.969C587.846 646.99 587.416 647.024 586.519 647.009C571.374 646.993 556.695 647.025 541.671 646.996C540.87 646.986 540.413 647.036 539.595 647.041C538.511 647.041 537.788 647.086 536.806 647.048C536.091 646.682 535.636 646.4 535.243 645.694C535.24 643.596 535.174 641.921 535.465 640.072C538.91 639.031 542.016 638.224 545.069 637.251C545.657 637.063 546.038 636.227 546.515 635.691C545.837 635.169 545.234 634.445 544.468 634.168C542.668 633.517 540.791 633.08 538.846 632.213C538.17 630.088 537.143 628.318 537.095 626.523C536.904 619.278 536.805 612.015 537.151 604.781C537.248 602.745 538.981 600.787 540.243 598.535C542.364 597.576 544.207 596.875 547.088 595.779C545.875 594.671 545.083 593.613 544.026 593.069C542.8 592.437 541.341 592.255 539.747 591.62C534.905 590.683 538.629 586.357 536.651 584.433C536.761 584.29 537.003 584.02 537.003 584.02C548.043 587.982 559.137 583.274 570.56 584.372ZM577.001 622.001C577.001 622.001 577.013 622.013 577.333 621.504C577.901 621.21 578.468 620.917 579.348 620.462C578.015 620.05 576.892 619.703 575.685 619.33C576.21 617.819 576.657 616.53 577.262 614.785C574.36 614.785 571.879 614.785 569.325 614.785C569.087 616.236 568.844 617.723 568.365 620.648C567.298 617.633 566.724 616.013 565.777 613.337C565.085 616.981 564.13 619.403 564.362 621.706C564.515 623.224 566.276 625.676 567.492 625.786C571.271 626.131 575.133 625.557 580.25 625.267C578.837 623.845 577.914 622.917 577.001 622.001ZM563.703 607.381C564.466 609.315 561.975 612.867 566.364 612.983C570.456 613.092 574.554 613.007 578.826 613.007C578.826 609.784 578.826 607.332 578.826 604.521C574.456 604.521 570.147 604.401 565.856 604.624C565.017 604.667 564.247 606.038 563.703 607.381ZM546.886 621.065C546.576 620.496 546.274 619.924 545.956 619.361C545.302 618.204 544.641 617.052 543.983 615.898C543.968 623.761 549.86 626.208 556.252 621.045C554.52 621.401 552.788 621.757 550.534 622.219C550.054 621.969 548.819 621.326 546.886 621.065Z" fill="#6C787E"/>
<path d="M542.004 651.004C542.003 649.955 541.996 648.901 542.002 647.452C556.695 647.025 571.374 646.993 586.519 647.009C586.991 648.111 586.997 649.165 587.007 650.614C582.315 651.006 577.62 651.001 572.463 650.999C572.001 651.001 572.01 651.01 571.991 650.592C569.786 647.405 559.077 646.918 557.148 649.543C556.896 649.886 557.033 650.514 556.995 651.005C556.999 651.001 557.01 650.99 556.543 650.994C551.381 650.995 546.686 650.992 541.99 650.99C541.99 650.99 541.999 650.999 542.004 651.004Z" fill="white"/>
<path d="M576.991 621.988C577.914 622.917 578.837 623.845 580.25 625.267C575.133 625.557 571.27 626.131 567.491 625.786C566.275 625.676 564.515 623.224 564.362 621.706C564.13 619.403 565.085 616.981 565.777 613.337C566.724 616.013 567.297 617.633 568.364 620.648C568.843 617.723 569.087 616.236 569.325 614.785C571.879 614.785 574.36 614.785 577.261 614.785C576.656 616.53 576.209 617.819 575.685 619.33C576.891 619.703 578.014 620.05 579.347 620.462C578.467 620.917 577.9 621.211 576.923 621.764C576.225 622.142 575.937 622.261 575.649 622.379C575.741 622.508 575.833 622.637 575.924 622.765C576.28 622.506 576.636 622.247 576.991 621.988Z" fill="#949799"/>
<path d="M563.574 607.089C564.247 606.038 565.017 604.667 565.856 604.624C570.147 604.401 574.456 604.521 578.826 604.521C578.826 607.332 578.826 609.784 578.826 613.007C574.554 613.007 570.456 613.092 566.364 612.983C561.975 612.867 564.466 609.315 563.574 607.089Z" fill="#2BA3AA"/>
<path d="M535.898 632.015C535.81 628.366 535.721 624.716 535.583 620.2C535.435 615.133 535.336 610.932 535.436 606.324C535.503 600.7 535.37 595.482 535.384 589.838C535.531 587.921 535.531 586.429 535.531 584.938C535.7 584.879 535.87 584.821 536.289 584.67C538.629 586.357 534.906 590.683 539.419 591.693C538.73 592.186 537.61 592.371 537.616 592.507C537.701 594.408 537.939 596.302 538.165 598.442C538.412 598.49 539.188 598.641 539.965 598.793C538.982 600.787 537.249 602.745 537.151 604.781C536.805 612.015 536.905 619.278 537.096 626.523C537.143 628.319 538.17 630.088 538.846 632.213C538.512 632.612 538.079 632.667 537.175 632.536C536.468 632.158 536.2 632.047 535.898 632.015Z" fill="#616366"/>
<path d="M540.242 598.535C539.187 598.641 538.411 598.49 538.164 598.441C537.938 596.301 537.7 594.407 537.615 592.506C537.609 592.371 538.729 592.186 539.654 591.951C541.34 592.255 542.799 592.437 544.026 593.069C545.082 593.613 545.874 594.67 547.087 595.779C544.206 596.875 542.363 597.576 540.242 598.535Z" fill="#FDFCFA"/>
<path d="M547.234 620.874C548.818 621.326 550.053 621.969 550.533 622.219C552.787 621.756 554.519 621.401 556.251 621.045C549.86 626.208 543.967 623.761 543.982 615.898C544.64 617.052 545.302 618.204 545.955 619.361C546.273 619.924 546.576 620.496 547.234 620.874Z" fill="#F0F1F0"/>
<path d="M535.242 645.694C534.788 643.374 534.395 640.631 534.008 637.445C534.357 637.841 534.702 638.68 535.077 639.882C535.173 641.921 535.239 643.596 535.242 645.694Z" fill="#F3F4F5"/>
<path d="M539.595 647.041C539.112 647.256 538.268 647.426 537.244 647.364C537.788 647.086 538.511 647.041 539.595 647.041Z" fill="white"/>
<path d="M535.384 589.838C534.934 590.473 534.631 590.683 534.146 590.936C534.272 589.067 534.579 587.154 535.209 585.089C535.532 586.429 535.531 587.921 535.384 589.838Z" fill="#F3F4F5"/>
<path d="M534.145 620.936C533.972 616.302 533.981 611.625 533.977 606.484C534.293 606.179 534.624 606.337 535.095 606.613C535.335 610.932 535.434 615.133 535.385 619.8C534.933 620.475 534.629 620.684 534.145 620.936Z" fill="#F3F4F5"/>
<path d="M535.912 632.301C536.198 632.047 536.467 632.158 536.845 632.517C536.634 632.652 536.281 632.62 535.912 632.301Z" fill="#6C787E"/>
<path d="M571.991 650.593C567.315 651.007 562.619 651.005 557.457 651.006C557.033 650.514 556.896 649.886 557.147 649.544C559.076 646.919 569.785 647.405 571.991 650.593Z" fill="#E6E6E6"/>
<path d="M576.995 621.995C576.635 622.247 576.279 622.506 575.924 622.765C575.832 622.637 575.74 622.508 575.648 622.379C575.937 622.26 576.225 622.142 576.762 622.018C577.012 622.013 577 622.001 576.995 621.995Z" fill="#6C787E"/>
<path d="M312.468 422.212C312.606 424.473 312.452 426.96 312.01 429.732C311.873 427.491 312.024 424.964 312.468 422.212Z" fill="#F6F7F7"/>
<path d="M428.715 359.192C437.833 357.615 446.664 356.231 455.499 354.869C456.47 354.719 457.46 354.696 459.147 354.315C462.342 353.554 464.833 353.092 467.323 352.63C467.581 352.623 467.839 352.616 468.611 352.391C471.94 351.635 474.756 351.097 478.049 350.611C485.432 349.541 492.337 348.421 499.611 347.23C502.469 346.533 504.595 346.675 505.302 350.079C506.514 357.629 507.789 364.797 509.058 372.379C509.696 375.493 510.339 378.194 511.023 380.962C511.063 381.029 511.144 381.163 511.015 381.561C511.48 384.484 512.075 387.008 512.5 389.824C512.369 390.56 512.41 391.003 512.311 391.764C512.499 393.398 512.826 394.714 513.106 396.423C513.359 398.411 513.435 400.09 513.998 401.585C515.869 406.56 513.289 407.823 508.984 408.451C503.087 409.312 497.259 410.647 491.044 411.656C487.782 412.066 484.877 412.598 481.565 413.093C475.761 414.019 470.364 414.982 464.698 415.983C464.274 416.113 464.118 416.205 463.618 416.25C462.456 416.446 461.638 416.688 460.435 416.934C458.359 417.315 456.667 417.691 454.534 418C448.401 418.99 442.708 420.047 436.691 420.945C435.592 418.531 434.817 416.276 434.075 413.599C433.788 410.654 434.222 406.447 433.015 405.907C428.354 403.822 430.558 399.89 429.841 396.781C431.026 399.018 431.961 401.37 432.895 403.722C433.506 403.637 434.117 403.552 434.727 403.466C434.162 397.651 433.597 391.835 433.032 386.019C432.789 386.013 432.545 386.007 432.301 386.002C432.092 387.041 431.882 388.081 431.672 389.12C431.32 389.091 430.968 389.061 430.616 389.032C430.616 385.154 430.616 381.276 430.616 377.398C430.096 377.34 429.576 377.283 429.056 377.226C428.717 378.5 428.24 379.755 428.068 381.051C427.672 384.043 427.249 387.05 427.178 390.059C427.133 391.977 427.697 393.911 427.632 395.863C423.871 394.838 422.901 392.378 423.613 388.914C424.752 386.899 425.624 385.068 426.485 382.862C426.291 376.987 428.641 371.425 426.078 365.982C425.781 363.399 424.483 360.46 428.715 359.192ZM435.459 386.274C436.449 391.559 439.88 398.18 437.883 401.828C434.518 407.973 437.875 412.436 437.414 418.21C462.863 413.779 487.525 409.485 512.181 405.193C509.011 387.038 505.904 369.71 503.033 352.344C502.537 349.341 501.796 349.146 498.905 349.777C491.051 351.492 483.055 352.549 475.124 353.918C459.47 356.621 443.821 359.359 427.949 362.12C428.583 365.493 429.124 368.54 429.739 371.572C429.996 372.843 430.156 375.019 430.792 375.191C436.855 376.835 434.785 381.71 435.459 386.274Z" fill="#616366"/>
<path d="M435.333 385.932C434.785 381.71 436.855 376.835 430.791 375.191C430.156 375.019 429.996 372.843 429.739 371.571C429.124 368.54 428.582 365.493 427.949 362.12C443.821 359.359 459.47 356.621 475.124 353.918C483.055 352.549 491.051 351.492 498.905 349.777C501.796 349.145 502.537 349.341 503.033 352.344C505.904 369.71 509.011 387.038 512.181 405.193C487.524 409.485 462.863 413.779 437.414 418.21C437.875 412.436 434.518 407.973 437.883 401.828C439.88 398.179 436.449 391.559 435.333 385.932ZM453.992 396.163C453.698 390.658 453.036 390.254 447.456 392.234C447.706 394.138 447.957 396.058 448.136 398.788C448.404 401.175 448.672 403.563 448.164 405.882C447.8 405.58 447.17 405.323 447.11 404.968C445.02 392.764 443.018 380.545 440.895 368.347C440.645 366.912 439.777 365.585 439.196 364.209C438.493 364.415 437.789 364.621 437.086 364.827C439.587 379.763 442.088 394.699 444.583 409.606C457.8 409.336 505.08 400.339 506.774 397.826C504.296 396.839 501.801 395.846 499.842 395.065C497.744 396.229 495.803 397.306 493.433 397.737C492.458 393.87 491.483 390.004 490.526 386.207C488.433 386.435 486.739 386.62 485.395 386.766C485.966 391.422 486.489 395.678 486.26 399.969C485.51 400.025 484.76 400.082 483.775 399.536C483.245 397.638 482.715 395.739 482.458 393.21C482.282 391.104 482.616 388.754 481.763 386.972C481.122 385.633 478.956 385.024 477.469 384.09C476.887 385.281 475.831 386.472 475.828 387.665C475.821 389.755 476.461 391.847 476.411 394.48C476.687 396.681 476.963 398.881 476.45 401.139C475.926 401.202 475.403 401.264 474.369 400.715C473.336 396.087 472.303 391.458 471.521 386.173C471.061 383.156 470.545 380.147 470.16 377.121C469.875 374.876 469.516 372.19 466.601 373.317C465.288 373.825 464.184 376.658 464.201 378.425C464.23 381.317 465.253 384.199 465.631 387.719C466.397 392.785 467.163 397.85 467.19 402.965C466.451 403.031 465.713 403.096 464.953 402.299C463.97 397.172 462.987 392.046 462.012 386.103C462.241 382.882 460.822 381.431 457.582 382.094C454.066 382.814 455.207 384.944 456.086 387.806C456.815 393.226 457.543 398.646 457.758 404.525C456.861 404.664 455.963 404.803 455.064 404.093C454.717 401.697 454.37 399.3 453.992 396.163Z" fill="#F3F4F5"/>
<path d="M429.841 396.781C429.256 396.627 428.92 396.357 428.286 395.962C427.697 393.91 427.133 391.977 427.178 390.058C427.249 387.05 427.672 384.043 428.068 381.051C428.24 379.755 428.717 378.5 429.056 377.226C429.576 377.283 430.096 377.34 430.616 377.397C430.616 381.275 430.616 385.153 430.616 389.032C430.968 389.061 431.32 389.091 431.672 389.12C431.882 388.08 432.092 387.041 432.301 386.001C432.545 386.007 432.789 386.013 433.032 386.019C433.597 391.835 434.163 397.65 434.728 403.466C434.117 403.551 433.506 403.636 432.895 403.722C431.961 401.369 431.026 399.017 429.841 396.781Z" fill="#656D73"/>
<path d="M463.619 416.25C463.107 416.582 462.251 416.868 461.107 417.042C461.638 416.687 462.457 416.446 463.619 416.25Z" fill="#F6F7F7"/>
<path d="M512.5 389.824C512.738 390.327 512.805 391.123 512.662 391.682C512.411 391.003 512.37 390.56 512.5 389.824Z" fill="white"/>
<path d="M493.862 398.382C495.803 397.306 497.744 396.229 499.842 395.065C501.801 395.845 504.296 396.839 506.774 397.826C505.08 400.338 457.8 409.336 444.583 409.606C442.088 394.699 439.587 379.763 437.086 364.827C437.789 364.621 438.493 364.415 439.196 364.208C439.777 365.585 440.645 366.912 440.895 368.347C443.018 380.545 445.02 392.764 447.11 404.968C447.17 405.323 447.8 405.58 448.945 405.932C451.506 405.635 453.286 405.289 455.066 404.942C455.963 404.803 456.861 404.664 458.291 404.415C460.875 403.924 462.925 403.543 464.975 403.161C465.713 403.096 466.451 403.03 467.938 402.936C470.751 402.38 472.816 401.853 474.88 401.326C475.403 401.264 475.926 401.202 477.128 401.222C479.874 400.916 481.942 400.527 484.01 400.138C484.76 400.082 485.51 400.025 487.01 399.967C489.794 399.438 491.828 398.91 493.862 398.382Z" fill="#B8BABA"/>
<path d="M464.965 402.73C462.925 403.542 460.875 403.924 458.548 404.185C457.544 398.645 456.815 393.225 456.371 387.5C458.438 387.102 460.222 387.011 462.005 386.919C462.988 392.046 463.971 397.172 464.965 402.73Z" fill="#F3B89A"/>
<path d="M474.626 401.021C472.817 401.853 470.752 402.38 468.309 402.911C467.165 397.85 466.399 392.784 466.078 387.455C468.106 387.071 469.689 386.95 471.272 386.829C472.305 391.458 473.337 396.086 474.626 401.021Z" fill="#F3B89A"/>
<path d="M471.396 386.501C469.688 386.95 468.105 387.071 466.189 387.139C465.253 384.199 464.23 381.317 464.201 378.425C464.184 376.658 465.288 373.825 466.601 373.317C469.516 372.19 469.875 374.876 470.16 377.121C470.545 380.147 471.061 383.156 471.396 386.501Z" fill="#97CDAC"/>
<path d="M493.647 398.059C491.828 398.91 489.794 399.437 487.385 399.949C486.488 395.678 485.966 391.422 485.395 386.766C486.739 386.62 488.433 386.435 490.525 386.207C491.483 390.004 492.458 393.87 493.647 398.059Z" fill="#F3B89A"/>
<path d="M476.831 393.938C476.462 391.847 475.822 389.755 475.828 387.665C475.832 386.472 476.888 385.282 477.47 384.09C478.957 385.024 481.123 385.633 481.764 386.972C482.617 388.754 482.283 391.104 481.874 393.558C479.804 393.916 478.317 393.927 476.831 393.938Z" fill="#97CDAC"/>
<path d="M455.066 404.518C453.287 405.289 451.507 405.635 449.334 405.965C448.673 403.563 448.406 401.175 448.543 398.386C450.64 397.624 452.333 397.264 454.025 396.904C454.372 399.3 454.718 401.697 455.066 404.518Z" fill="#EBBF9C"/>
<path d="M476.621 394.209C478.317 393.927 479.804 393.916 481.738 393.873C482.716 395.739 483.246 397.638 483.893 399.837C481.942 400.527 479.874 400.916 477.523 401.193C476.963 398.881 476.687 396.681 476.621 394.209Z" fill="#F3B89A"/>
<path d="M454.009 396.533C452.332 397.263 450.639 397.623 448.578 397.98C447.958 396.057 447.706 394.138 447.457 392.234C453.037 390.254 453.699 390.658 454.009 396.533Z" fill="#97CDAC"/>
<path d="M462.008 386.511C460.221 387.011 458.437 387.102 456.414 387.093C455.207 384.944 454.066 382.814 457.582 382.094C460.822 381.431 462.24 382.882 462.008 386.511Z" fill="#97CDAC"/>
</svg>
