<svg width="1400" height="980" viewBox="0 0 1400 980" fill="none" xmlns="http://www.w3.org/2000/svg">
<g clip-path="url(#clip0_105_2)">
<path d="M498.7 319.301L498.8 319.201L543.8 256.501L613.2 182.801H613.3L711.1 149.301H711.2L817.4 168.901H817.5L881.6 199.601L881.7 199.701L956.5 289.101V289.201L981.4 398.101V398.201L954.4 501.801L954.3 501.901L880.9 587.901L837 621.601H836.9L724.3 644.201H724.2L611.6 612.301L611.5 612.201L528.6 538.901V538.801L489 432.701L498.7 319.301ZM613.9 183.801L544.7 257.201L499.8 319.701L490.2 432.501L529.7 538.201L612.3 611.201L724.5 643.001L836.7 620.501L880.3 587.001L953.5 501.201L980.4 398.001L955.6 289.501L881.1 200.501L817.3 169.901L711.4 150.401L613.9 183.801Z" fill="black"/>
<path d="M620.6 187.1L726.7 179L817.8 168.7L830.6 223.3L906.1 307.6V307.7L951.7 410.7L872.9 411.5L766.7 418.7L766.5 418.5L694.2 324.2L643 242.5L620.6 187.1ZM817 170L726.9 180.2L622.3 188.2L644.2 241.9L695.3 323.5L767.3 417.5L872.9 410.4L950 409.6L905.2 308.4L829.6 224L817 170Z" fill="black"/>
<path d="M550.199 271.901L620.999 187.301L621.899 188.001L553.599 269.601L643.399 241.601L726.399 179.101L727.099 180.101L643.999 242.601L643.899 242.701L550.199 271.901Z" fill="black"/>
<path d="M498.6 319.301L553.1 268.801L517.5 380.401L532.4 495.601L489.2 433.001L490.1 432.301L530.7 491.001L516.3 380.301L516.4 380.201L550.7 272.701L499.9 319.701L515.5 380.001L515.4 380.201L488.6 433.901L487.6 433.401L514.3 379.901L498.6 319.301Z" fill="black"/>
<path d="M552.6 272.6L553.7 272.1L587.7 341.9L588.5 343.1L589.4 339.4L643.2 241.9L644.2 242.5L590.4 339.9L589.9 342L695.7 323L652.3 432.1L586.6 342.5L552.6 272.6ZM693.9 324.5L588.7 343.3L652 429.7L693.9 324.5Z" fill="black"/>
<path d="M517.245 380.918L584.898 344.576L584.331 343.519L516.677 379.861L517.245 380.918Z" fill="black"/>
<path d="M530 492.101L613.4 523.801L652 429.701L724.1 520.501L614.2 525.001L613.6 526.401L694.3 599.401L773.5 633.301L773 634.401L693.6 600.401L693.5 600.301L612.1 526.701L612.8 524.901L532.9 494.501L612.3 611.401L611.3 612.101L530 492.101ZM652.3 432.001L614.7 523.801L721.7 519.501L652.3 432.001Z" fill="black"/>
<path d="M692 600.801L722.3 519.801L766.5 417.801L767.6 418.301L723.4 520.301L693.8 599.201L805 576.301L724.6 522.001L725.3 521.101L807.9 576.901L692 600.801Z" fill="black"/>
<path d="M775.299 633.8L878.599 587.7L804.999 577L899.399 505.9L881.699 585.6L880.599 585.3L897.599 508.7L807.899 576.2L882.799 587.2L775.799 634.9L775.299 633.8Z" fill="black"/>
<path d="M776.812 631.14L806.943 576.84L805.894 576.258L775.763 630.558L776.812 631.14Z" fill="black"/>
<path d="M830.2 223.001L909.3 234.901L906.4 307.301V307.401L873.6 411.001L898.6 505.601L951.4 408.001L954.6 502.201L898.6 508.001L897.5 510.001L896.5 509.401L897.8 507.001L872.4 410.901V410.701L905.2 307.101L908 235.901L829.9 224.101L830.2 223.001ZM950.4 412.201L899.3 506.601L953.4 501.001L950.4 412.201Z" fill="black"/>
<path d="M908.387 235.933L909.094 234.964L818.436 168.867L817.729 169.836L908.387 235.933Z" fill="black"/>
<path d="M613.299 183.801L613.899 182.801L621.499 187.001L711.499 149.101L727.199 179.101L830.799 223.201L811.099 312.001L905.599 307.301L905.699 308.501L809.699 313.201L829.499 223.901L726.299 180.101L710.999 150.601L621.399 188.301L613.299 183.801Z" fill="black"/>
<path d="M652.1 430.3L766.7 417.5L810.3 311.4L873.5 410.6L872.5 411.2L810.5 313.9L767.5 418.6H767.1L652.2 431.4L652.1 430.3Z" fill="black"/>
<path d="M694.958 324.301L810.523 313.195L810.409 312.001L694.843 323.107L694.958 324.301Z" fill="black"/>
<path d="M531 493.301L532.2 493.401L529.9 538.401L594 584.801L612.7 525.601L695.8 600.801L594 586.201L593.9 586.101L528.6 538.901L531 493.301ZM613.2 527.601L595 585.101L692.2 599.001L613.2 527.601Z" fill="black"/>
<path d="M904.699 307.701L955.899 288.801L956.299 289.801L906.699 308.201L981.999 398.301L951.099 410.601L950.699 409.501L979.999 397.901L904.699 307.701Z" fill="black"/>
<path d="M724.032 643.903L725.016 643.215L694.74 599.956L693.757 600.644L724.032 643.903Z" fill="black"/>
<path d="M725.199 186.7C721.299 185.8 718.799 181.9 719.699 178C720.599 174.1 724.499 171.6 728.399 172.5C732.299 173.4 734.799 177.3 733.899 181.2C732.999 185.1 729.099 187.6 725.199 186.7Z" fill="black"/>
<path d="M693.199 330.8C689.299 329.9 686.799 326 687.699 322.1C688.599 318.2 692.499 315.7 696.399 316.6C700.299 317.5 702.799 321.4 701.899 325.3C700.999 329.2 697.199 331.7 693.199 330.8Z" fill="black"/>
<path d="M642.1 249.2C638.2 248.3 635.7 244.4 636.6 240.5C637.5 236.6 641.4 234.1 645.3 235C649.2 235.9 651.7 239.8 650.8 243.7C649.9 247.6 646 250.1 642.1 249.2Z" fill="black"/>
<path d="M587.2 350.8C591.949 350.8 595.8 346.949 595.8 342.2C595.8 337.45 591.949 333.6 587.2 333.6C582.45 333.6 578.6 337.45 578.6 342.2C578.6 346.949 582.45 350.8 587.2 350.8Z" fill="black"/>
<path d="M488.1 439.7C484.2 438.8 481.7 434.9 482.6 431C483.5 427.1 487.4 424.6 491.3 425.5C495.2 426.4 497.7 430.3 496.8 434.2C495.9 438.1 492 440.6 488.1 439.7Z" fill="black"/>
<path d="M767.099 426.801C771.959 426.801 775.899 422.861 775.899 418.001C775.899 413.141 771.959 409.201 767.099 409.201C762.239 409.201 758.299 413.141 758.299 418.001C758.299 422.861 762.239 426.801 767.099 426.801Z" fill="black"/>
<path d="M905.7 315.201C909.732 315.201 913 311.932 913 307.901C913 303.869 909.732 300.601 905.7 300.601C901.669 300.601 898.4 303.869 898.4 307.901C898.4 311.932 901.669 315.201 905.7 315.201Z" fill="black"/>
<path d="M979.4 405.2C975.5 404.3 973 400.4 973.9 396.5C974.8 392.6 978.7 390.1 982.6 391C986.5 391.9 989 395.8 988.1 399.7C987.2 403.6 983.4 406.1 979.4 405.2Z" fill="black"/>
<path d="M952.5 508.6C948.6 507.7 946.1 503.8 947 499.9C947.9 496 951.8 493.5 955.7 494.4C959.6 495.3 962.1 499.2 961.2 503.1C960.3 507 956.4 509.5 952.5 508.6Z" fill="black"/>
<path d="M722.9 527.301C726.931 527.301 730.2 524.033 730.2 520.001C730.2 515.969 726.931 512.701 722.9 512.701C718.868 512.701 715.6 515.969 715.6 520.001C715.6 524.033 718.868 527.301 722.9 527.301Z" fill="black"/>
<path d="M828.999 228.9C826.099 228.2 824.199 225.3 824.899 222.4C825.599 219.5 828.499 217.6 831.399 218.3C834.299 219 836.199 221.9 835.499 224.8C834.799 227.7 831.899 229.5 828.999 228.9Z" fill="black"/>
<path d="M907.599 240.701C904.699 240.001 902.799 237.101 903.499 234.201C904.099 231.301 907.099 229.401 909.999 230.101C912.899 230.801 914.799 233.701 914.099 236.601C913.399 239.501 910.499 241.401 907.599 240.701Z" fill="black"/>
<path d="M816.199 174.701C813.299 174.001 811.399 171.101 812.099 168.201C812.799 165.301 815.699 163.401 818.599 164.101C821.499 164.801 823.399 167.701 822.699 170.601C822.099 173.501 819.199 175.301 816.199 174.701Z" fill="black"/>
<path d="M949.699 415.4C946.799 414.7 944.899 411.8 945.599 408.9C946.299 406 949.199 404.1 952.099 404.8C954.999 405.5 956.899 408.4 956.199 411.3C955.599 414.2 952.699 416 949.699 415.4Z" fill="black"/>
<path d="M897.3 512.601C894.4 511.901 892.5 509.001 893.2 506.101C893.9 503.201 896.8 501.301 899.7 502.001C902.6 502.701 904.5 505.601 903.8 508.501C903.2 511.401 900.2 513.301 897.3 512.601Z" fill="black"/>
<path d="M723.3 648.999C720.4 648.399 718.5 645.399 719.2 642.499C719.9 639.599 722.8 637.699 725.7 638.399C728.6 639.099 730.5 641.999 729.8 644.899C729.2 647.799 726.3 649.599 723.3 648.999Z" fill="black"/>
<path d="M612.199 529.8C609.299 529.1 607.399 526.2 608.099 523.3C608.699 520.4 611.699 518.5 614.599 519.2C617.499 519.8 619.399 522.8 618.699 525.7C618.099 528.6 615.199 530.4 612.199 529.8Z" fill="black"/>
<path d="M528.1 543.9C525.2 543.2 523.3 540.3 523.9 537.4C524.6 534.5 527.5 532.6 530.4 533.3C533.3 534 535.2 536.9 534.5 539.8C533.9 542.7 531 544.6 528.1 543.9Z" fill="black"/>
<path d="M530.4 498.601C527.5 497.901 525.6 495.001 526.3 492.101C526.9 489.201 529.9 487.301 532.8 488.001C535.7 488.701 537.6 491.601 536.9 494.501C536.2 497.401 533.3 499.301 530.4 498.601Z" fill="black"/>
<path d="M498.099 324.8C495.199 324.1 493.299 321.2 493.999 318.3C494.699 315.4 497.599 313.5 500.499 314.2C503.399 314.9 505.299 317.8 504.599 320.7C503.999 323.6 500.999 325.5 498.099 324.8Z" fill="black"/>
<path d="M515.699 385.701C512.799 385.001 510.899 382.101 511.599 379.201C512.299 376.301 515.199 374.401 518.099 375.101C520.999 375.701 522.899 378.701 522.199 381.601C521.599 384.501 518.699 386.401 515.699 385.701Z" fill="black"/>
<path d="M612.4 188.6C609.5 187.9 607.6 185 608.3 182.1C609 179.2 611.9 177.3 614.8 178C617.7 178.7 619.6 181.6 618.9 184.5C618.3 187.4 615.4 189.2 612.4 188.6Z" fill="black"/>
<path d="M954.999 294.6C952.099 294 950.199 291 950.899 288.1C951.599 285.2 954.499 283.3 957.399 284C960.299 284.7 962.199 287.6 961.499 290.5C960.799 293.4 957.899 295.3 954.999 294.6Z" fill="black"/>
<path d="M880.599 203.6C878.599 203.2 877.399 201.2 877.799 199.3C878.199 197.3 880.199 196.1 882.099 196.5C884.099 196.9 885.299 198.9 884.899 200.8C884.499 202.8 882.599 204 880.599 203.6Z" fill="black"/>
<path d="M809.599 316.2C807.599 315.8 806.399 313.8 806.799 311.9C807.199 309.9 809.199 308.7 811.099 309.1C813.099 309.5 814.299 311.5 813.899 313.4C813.499 315.4 811.599 316.6 809.599 316.2Z" fill="black"/>
<path d="M710.5 153.4C708.5 153 707.3 151 707.7 149.1C708.1 147.1 710.1 145.9 712 146.3C714 146.7 715.2 148.7 714.8 150.6C714.4 152.6 712.5 153.8 710.5 153.4Z" fill="black"/>
<path d="M651.299 434.8C649.199 434.3 647.799 432.2 648.299 430.1C648.799 428 650.899 426.6 652.999 427.1C655.099 427.6 656.499 429.7 655.999 431.8C655.599 433.9 653.399 435.2 651.299 434.8Z" fill="black"/>
<path d="M611.199 615.3C609.199 614.9 607.999 612.9 608.399 611C608.799 609 610.799 607.8 612.699 608.2C614.699 608.6 615.899 610.6 615.499 612.5C615.099 614.5 613.199 615.8 611.199 615.3Z" fill="black"/>
<path d="M805.699 580.1C803.699 579.7 802.499 577.7 802.899 575.8C803.299 573.8 805.299 572.6 807.199 573C809.199 573.4 810.399 575.4 809.999 577.3C809.599 579.3 807.599 580.6 805.699 580.1Z" fill="black"/>
<path d="M836 625.2C833.7 624.7 832.3 622.4 832.8 620.2C833.3 617.9 835.6 616.5 837.8 617C840.1 617.5 841.5 619.8 841 622C840.6 624.3 838.3 625.7 836 625.2Z" fill="black"/>
<path d="M879.9 591.001C877.9 590.601 876.7 588.601 877.1 586.701C877.5 584.701 879.5 583.501 881.4 583.901C883.4 584.301 884.6 586.301 884.2 588.201C883.8 590.201 881.9 591.401 879.9 591.001Z" fill="black"/>
<path d="M550.299 277.801C546.399 276.901 543.899 273.001 544.799 269.101C545.699 265.201 549.599 262.701 553.499 263.601C557.399 264.501 559.899 268.401 558.999 272.301C558.099 276.201 554.199 278.701 550.299 277.801Z" fill="black"/>
<path d="M872 415.4C869.5 414.9 868 412.4 868.5 409.9C869 407.4 871.5 405.9 874 406.4C876.5 406.9 878 409.4 877.5 411.9C876.9 414.4 874.5 415.9 872 415.4Z" fill="black"/>
<path d="M774 641.401C770.1 640.501 767.6 636.601 768.5 632.701C769.4 628.801 773.3 626.301 777.2 627.201C781.1 628.101 783.6 632.001 782.7 635.901C781.8 639.801 777.9 642.301 774 641.401Z" fill="black"/>
<path d="M693.199 605.299C690.499 604.699 688.699 601.999 689.299 599.299C689.899 596.599 692.599 594.799 695.299 595.499C697.999 596.099 699.799 598.799 699.199 601.499C698.599 604.199 695.899 605.899 693.199 605.299Z" fill="black"/>
<path fill-rule="evenodd" clip-rule="evenodd" d="M724.899 729.6L671.999 706.1L565.699 753.3L618.599 776.8L565.699 800.3L618.599 823.8V887.9L724.899 935.1L831.199 887.9V823.8L883.999 800.3L831.199 776.8L883.999 753.3L777.799 706.1L724.899 729.6Z" fill="#D7A365"/>
<path fill-rule="evenodd" clip-rule="evenodd" d="M831.198 776.799L724.898 823.999V935.099L831.198 887.899V776.799Z" fill="#ECC383"/>
<path fill-rule="evenodd" clip-rule="evenodd" d="M618.6 776.799L724.9 823.999V935.099L618.6 887.899V776.799Z" fill="#E1B173"/>
<path fill-rule="evenodd" clip-rule="evenodd" d="M831.198 776.8L724.898 729.6V824L831.198 776.8Z" fill="#E1B173"/>
<path fill-rule="evenodd" clip-rule="evenodd" d="M883.998 800.299L831.198 776.799L724.898 823.999L777.798 847.499L883.998 800.299Z" fill="#CE9854"/>
<path fill-rule="evenodd" clip-rule="evenodd" d="M724.898 729.6L777.798 706.1L883.998 753.3L831.198 776.8L724.898 729.6Z" fill="#CE9854"/>
<path fill-rule="evenodd" clip-rule="evenodd" d="M565.699 800.299L618.599 776.799L724.899 823.999L671.999 847.499L565.699 800.299Z" fill="#CE9854"/>
<path fill-rule="evenodd" clip-rule="evenodd" d="M724.899 729.6L671.999 706.1L565.699 753.3L618.599 776.8L724.899 729.6Z" fill="#CE9854"/>
<path fill-rule="evenodd" clip-rule="evenodd" d="M618.6 776.8L724.9 729.6V824L618.6 776.8Z" fill="#ECC383"/>
<path d="M725.9 646.801H723.9V732.001H725.9V646.801Z" fill="black"/>
<path d="M738.299 796.201C730.699 788.601 718.399 788.601 710.799 796.201C709.199 797.801 706.599 797.801 704.899 796.201C703.299 794.601 703.299 792.001 704.899 790.301C715.699 779.501 733.299 779.501 744.199 790.301C745.799 791.901 745.799 794.501 744.199 796.201C742.499 797.801 739.899 797.801 738.299 796.201Z" fill="black"/>
<path d="M752.3 782.1C744.6 774.4 734.6 770.6 724.5 770.6C714.4 770.6 704.4 774.4 696.7 782.1C695.1 783.7 692.5 783.7 690.8 782.1C689.2 780.5 689.2 777.8 690.8 776.2C709.4 757.6 739.6 757.6 758.2 776.2C759.8 777.8 759.8 780.4 758.2 782.1C756.6 783.8 753.9 783.8 752.3 782.1Z" fill="black"/>
<path d="M766.4 768.1C754.8 756.5 739.7 750.8 724.5 750.8C709.3 750.8 694.2 756.6 682.6 768.1C681 769.7 678.4 769.7 676.7 768.1C675.1 766.5 675.1 763.9 676.7 762.2C703.1 735.8 745.8 735.8 772.2 762.2C773.8 763.8 773.8 766.4 772.2 768.1C770.6 769.7 768 769.7 766.4 768.1Z" fill="black"/>
<path d="M729.499 800.901C732.199 803.601 732.199 808.101 729.499 810.801C726.799 813.501 722.299 813.501 719.599 810.801C716.899 808.101 716.899 803.601 719.599 800.901C722.299 798.101 726.799 798.101 729.499 800.901Z" fill="black"/>
<path d="M718.4 434.1C718.4 413 735.5 395.9 756.6 395.9C777.7 395.9 794.8 413 794.8 434.1C794.8 455.2 777.7 472.3 756.6 472.3C735.5 472.3 718.4 455.2 718.4 434.1Z" fill="#CC3E48"/>
<path d="M336.5 179.8C336.5 132.3 375 93.7998 422.4 93.7998C469.9 93.7998 508.3 132.3 508.3 179.8C508.3 227.3 469.8 265.7 422.4 265.7C375 265.7 336.5 227.3 336.5 179.8Z" fill="#ADBBC8"/>
<path d="M664.699 529.9C664.699 503.5 686.099 482.1 712.499 482.1C738.899 482.1 760.299 503.5 760.299 529.9C760.299 556.3 738.899 577.7 712.499 577.7C686.099 577.7 664.699 556.3 664.699 529.9Z" fill="#ADBBC8"/>
<path d="M373.5 382.199C373.5 363.999 388.3 349.199 406.5 349.199C424.7 349.199 439.5 363.999 439.5 382.199C439.5 400.399 424.7 415.199 406.5 415.199C388.2 415.199 373.5 400.399 373.5 382.199Z" fill="#CC3E48"/>
<path fill-rule="evenodd" clip-rule="evenodd" d="M402.799 384.3V386.1H408.499H409.699H410.399V378.6H408.499V378.7H403.199V378.9H402.799V384.3ZM408.499 384.3H404.699V380.3H408.499V384.3Z" fill="white"/>
<path fill-rule="evenodd" clip-rule="evenodd" d="M394.2 385.2L395.1 384.3V397.5H418V384.7L418.6 385.3L421.7 382.2L409.5 370L406.4 367L398.9 374.5V369.2H395.1V378.3L391.1 382.3L394.2 385.2ZM397 382.4L406.4 373L416.1 382.7L416.2 395.7H410.4V388H402.8V395.7H397V382.4Z" fill="white"/>
<path d="M843 409.601C843 364.401 879.6 327.801 924.8 327.801C970 327.801 1006.6 364.401 1006.6 409.601C1006.6 454.801 970 491.401 924.8 491.401C879.6 491.401 843 454.701 843 409.601Z" fill="#4B7699"/>
<path d="M406.5 618.1C406.5 558.9 454.5 511 513.6 511C572.8 511 620.8 559 620.8 618.1C620.8 677.3 572.8 725.2 513.6 725.2C454.5 725.3 406.5 677.3 406.5 618.1Z" fill="#CC3E48"/>
<path d="M1001.5 209.1C1001.5 174.9 1029.2 147.1 1063.5 147.1C1097.8 147.1 1125.5 174.8 1125.5 209.1C1125.5 243.3 1097.8 271.1 1063.5 271.1C1029.2 271.1 1001.5 243.3 1001.5 209.1Z" fill="#CC3E48"/>
<path d="M721.001 130.4C739.613 130.4 754.701 115.312 754.701 96.7C754.701 78.088 739.613 63 721.001 63C702.389 63 687.301 78.088 687.301 96.7C687.301 115.312 702.389 130.4 721.001 130.4Z" fill="#CC3E48"/>
<path d="M897.499 658.401C927.212 658.401 951.299 634.314 951.299 604.601C951.299 574.888 927.212 550.801 897.499 550.801C867.786 550.801 843.699 574.888 843.699 604.601C843.699 634.314 867.786 658.401 897.499 658.401Z" fill="#CC3E48"/>
<path d="M947.8 277.6C964.314 277.6 977.7 264.213 977.7 247.7C977.7 231.186 964.314 217.8 947.8 217.8C931.287 217.8 917.9 231.186 917.9 247.7C917.9 264.213 931.287 277.6 947.8 277.6Z" fill="#FFA20D"/>
<path fill-rule="evenodd" clip-rule="evenodd" d="M933.9 235H940.3V230.6H955.3V235H961.7V239.3H959.6V261.9C959.6 264 958.8 264.8 956.8 264.8H939.2C936.8 264.8 936 264 936 261.6V239.3H933.9V235ZM955.3 241.2H953.2V258.4H955.3V241.2ZM951 241.3H948.9V258.5H951V241.3ZM946.7 241.3H944.6V258.5H946.7V241.3ZM953.2 232.7H942.5V234.9H953.2V232.7ZM942.5 241.2H940.4V258.4H942.5V241.2Z" fill="#323132"/>
<path d="M1110.7 603.299C1155.05 603.299 1191 567.348 1191 522.999C1191 478.651 1155.05 442.699 1110.7 442.699C1066.35 442.699 1030.4 478.651 1030.4 522.999C1030.4 567.348 1066.35 603.299 1110.7 603.299Z" fill="#FFA20D"/>
<path d="M516.7 374.8C539.454 374.8 557.9 356.355 557.9 333.6C557.9 310.846 539.454 292.4 516.7 292.4C493.946 292.4 475.5 310.846 475.5 333.6C475.5 356.355 493.946 374.8 516.7 374.8Z" fill="#FFA20D"/>
<path d="M941.099 439.9H910.699V445.2H941.099V439.9Z" fill="white"/>
<path d="M910.8 445.9L909.5 448.7C909.5 448.7 909.6 449.5 910.2 449.5C910.8 449.5 941.5 449.5 942 449.5C942.6 449.5 942.6 448.7 942.6 448.7L941.3 445.9H910.8Z" fill="white"/>
<path d="M974.6 372.3V427.7V429V435.5C974.6 437.2 973.4 438.6 971.8 438.6H877.8C876.3 438.6 875 437.2 875 435.5V429V427.7V372.3C875 370.8 876.3 369.5 877.8 369.5H971.8C973.4 369.5 974.6 370.8 974.6 372.3Z" fill="white"/>
<path d="M968.8 376.4H880.6V426.2H968.8V376.4Z" fill="#323132"/>
<path d="M919.501 388H889.301V415.5H919.501V388Z" fill="#F1A93B"/>
<path d="M914.1 391.801H894.5V393.701H914.1V391.801Z" fill="#323132"/>
<path d="M914.1 400H894.5V401.9H914.1V400Z" fill="#323132"/>
<path d="M914.1 395.9H894.5V397.8H914.1V395.9Z" fill="#323132"/>
<path d="M905.6 404H894.5V405.9H905.6V404Z" fill="#323132"/>
<path d="M638.6 406.4C652.959 406.4 664.6 394.76 664.6 380.4C664.6 366.041 652.959 354.4 638.6 354.4C624.24 354.4 612.6 366.041 612.6 380.4C612.6 394.76 624.24 406.4 638.6 406.4Z" fill="#4B7699"/>
<path d="M273.301 503.699C273.301 535.999 299.501 562.199 331.801 562.199C364.101 562.199 390.301 535.999 390.301 503.699C390.301 471.399 364.101 445.199 331.801 445.199C299.501 445.199 273.301 471.399 273.301 503.699Z" fill="#4B7699"/>
<path d="M739.899 294.5C760.997 294.5 778.099 277.397 778.099 256.3C778.099 235.202 760.997 218.1 739.899 218.1C718.802 218.1 701.699 235.202 701.699 256.3C701.699 277.397 718.802 294.5 739.899 294.5Z" fill="#ADBBC8"/>
<path d="M764.199 241.1C763.099 241.9 761.199 242.7 758.899 242.7C760.499 242.1 762.499 239.7 763.299 237.3C763.299 237.3 759.499 239.4 756.699 239.9C754.899 237.9 752.199 236.7 749.299 236.7C743.799 236.7 739.299 241.2 739.299 246.7C739.299 247.5 739.399 248.2 739.499 248.9C730.999 248.7 722.299 243.3 718.999 238.4C715.999 243.9 718.399 249.2 722.099 251.8C720.299 251.9 718.599 251.2 717.599 250.4C716.999 254.9 720.999 259.9 725.399 260.3C724.099 261 722.199 260.7 721.099 260.6C722.099 265.3 727.399 267.9 730.399 267.5C726.699 271 720.299 272.4 715.699 271.6C721.399 275.8 732.899 278.6 744.099 273.1C754.999 267.7 759.399 256.5 759.399 246.7C759.399 246.6 759.399 246.6 759.399 246.5C761.099 245.2 763.499 242.7 764.199 241.1Z" fill="#323132"/>
<path d="M725.3 545.901C725.3 545.901 722.9 546.901 720.1 546.901C716.7 546.901 715.1 544.201 715.1 540.501V524.901H725.5V516.301H714.9V502.801H707.2C707.2 502.801 707.2 507.801 703.8 512.201C700.7 516.301 696.9 517.501 696.9 517.501V524.901H703.3V540.501C703.3 552.901 709.9 557.201 717.9 557.201C724.8 557.201 728.1 553.801 728.1 553.801L725.3 545.901Z" fill="#323132"/>
<path d="M505.9 303.1H527.4C530.9 303.1 533.8 306 533.8 309.5V357.9C533.8 361.4 530.9 364.3 527.4 364.3H505.9C502.4 364.3 499.5 361.4 499.5 357.9V309.5C499.5 305.9 502.4 303.1 505.9 303.1Z" fill="white"/>
<path d="M520.599 304.9C520.599 304.7 520.199 304.5 519.799 304.5H513.499C513.099 304.5 512.699 304.7 512.699 304.9V305.1C512.699 305.3 513.099 305.5 513.499 305.5H519.799C520.199 305.5 520.599 305.3 520.599 305.1V304.9Z" fill="#E6E6E6"/>
<path d="M515.9 307.2C515.9 307.6 516.2 307.9 516.6 307.9C517 307.9 517.3 307.6 517.3 307.2C517.3 306.8 517 306.5 516.6 306.5C516.2 306.5 515.9 306.8 515.9 307.2Z" fill="#E6E6E6"/>
<path d="M512.699 360.899C512.699 361.299 513.099 361.699 513.499 361.699H519.799C520.199 361.699 520.599 361.299 520.599 360.899V360.499C520.599 360.099 520.199 359.699 519.799 359.699H513.499C513.099 359.699 512.699 360.099 512.699 360.499V360.899Z" fill="#E6E6E6"/>
<path d="M531.799 309.399H502.199V357.799H531.799V309.399Z" fill="white"/>
<path d="M531.401 309.399H501.801V357.799H531.401V309.399Z" fill="#323132"/>
<path d="M516.7 337L519.1 334.9L525.9 340.7C525.7 340.9 525.3 341.1 525 341.1H508.5C508.1 341.1 507.8 341 507.6 340.7L514.4 334.9L516.7 337Z" fill="#CC3E48"/>
<path d="M507.5 327.8C507.7 327.6 508.1 327.4 508.4 327.4H524.9C525.3 327.4 525.6 327.5 525.8 327.8L516.6 335.7L507.5 327.8Z" fill="#CC3E48"/>
<path d="M526.3 328.6V340L519.6 334.4L526.3 328.6Z" fill="#CC3E48"/>
<path d="M513.7 334.4L507 340V328.6L513.7 334.4Z" fill="#CC3E48"/>
<path d="M545.801 184.9C546.201 184.9 546.601 184.9 546.901 184.8C546.501 184.9 546.201 184.9 545.801 184.9Z" fill="#3A2F28"/>
<path fill-rule="evenodd" clip-rule="evenodd" d="M648.101 376.699H646.201C646.201 374.999 646.201 373.199 646.201 371.799C646.201 368.099 642.201 365.199 638.601 365.199C634.901 365.199 631.001 368.199 631.001 371.799V376.699H629.201C628.201 376.699 627.301 377.499 627.301 378.599V393.699C627.301 394.699 628.101 395.599 629.201 395.599H648.101C649.101 395.599 650.001 394.799 650.001 393.699V378.599C650.001 377.599 649.101 376.699 648.101 376.699ZM634.901 371.899C634.901 370.299 637.001 369.099 638.601 369.099C640.201 369.099 642.401 370.399 642.401 371.899V376.799H634.901C634.901 374.699 634.901 372.599 634.901 371.899Z" fill="white"/>
<path d="M461.7 162.9C461.7 162.9 435.8 184.3 465.1 203.1C465.1 203.1 448.9 230.5 442.2 231.3C435.4 232.1 431.3 221.5 418.9 226.8C406.5 232.1 402.7 229.8 396 223.8C389.2 217.8 374.2 191.5 382.1 169C390 146.5 409.5 152.8 413.3 156.2C417.1 159.6 427.9 158.8 431.7 155.8C435.4 152.7 452.6 147.8 461.7 162.9Z" fill="#323132"/>
<path d="M440.601 128.3C440.601 128.3 447 152.3 418.8 154.2C418.8 154.2 412.101 133.9 440.601 128.3Z" fill="#323132"/>
<path d="M1066.3 567.6L1073.4 545.2C1069.2 538.3 1067 530.5 1067 522.4C1067 510.6 1071.6 499.6 1079.9 491.3C1088.2 483 1099.3 478.4 1111 478.4C1122.8 478.4 1133.8 483 1142.1 491.3C1150.4 499.6 1155 510.7 1155 522.4C1155 534.2 1150.4 545.2 1142.1 553.5C1133.8 561.8 1122.7 566.4 1111 566.4C1103.5 566.4 1096.1 564.5 1089.5 560.8L1066.3 567.6Z" fill="white"/>
<path d="M1090.6 553.2L1091.9 554C1097.7 557.5 1104.3 559.4 1111.1 559.4C1131.5 559.4 1148.1 542.8 1148.1 522.4C1148.1 502 1131.5 485.4 1111.1 485.4C1090.7 485.4 1074.1 502 1074.1 522.4C1074.1 529.7 1076.2 536.7 1080.2 542.8L1081.1 544.2L1077 557.2L1090.6 553.2Z" fill="#323132"/>
<path d="M1094.1 503.101C1096.1 501.601 1099.1 502.001 1099.9 502.501C1100.7 503.001 1104.8 511.801 1104.6 513.201C1104.5 514.501 1103.5 515.801 1102.8 516.501C1102.1 517.201 1101 518.201 1100.9 518.901C1100.8 519.601 1104.2 525.001 1107.1 527.401C1110.1 529.801 1115.8 533.401 1117.2 533.201C1118.5 533.001 1119.5 531.301 1120.1 530.501C1120.7 529.701 1121.8 527.801 1122.8 527.601C1123.8 527.401 1128.8 530.001 1128.8 530.001C1128.8 530.001 1133.4 531.901 1133.7 532.501C1134 533.101 1134.1 536.501 1132.9 538.201C1130.8 541.501 1127.1 543.901 1123.1 543.301C1118.6 542.601 1109.9 541.101 1101.4 532.401C1092.9 523.701 1089.8 517.601 1089.8 511.901C1089.7 507.801 1092.2 504.501 1094.1 503.101Z" fill="white"/>
<path d="M568.199 675.299H459.199C458.099 675.299 457.199 676.199 457.199 677.299C457.199 678.399 458.099 679.299 459.199 679.299H568.199C569.299 679.299 570.199 678.399 570.199 677.299C570.199 676.199 569.299 675.299 568.199 675.299Z" fill="#ADBBC8"/>
<path d="M560.199 638.4H467.199C461.699 638.4 457.199 642.9 457.199 648.4V660.7C457.199 666.2 461.699 670.7 467.199 670.7H560.199C565.699 670.7 570.199 666.2 570.199 660.7V648.4C570.199 642.9 565.699 638.4 560.199 638.4ZM512.199 655.1C512.199 657.4 510.399 659.2 508.099 659.2H468.599C466.299 659.2 464.499 657.4 464.499 655.1V653.4C464.499 651.1 466.299 649.3 468.599 649.3H508.099C510.399 649.3 512.199 651.1 512.199 653.4V655.1ZM524.399 654.7C524.399 656 523.399 657 522.099 657H517.799C516.499 657 515.499 656 515.499 654.7V653.7C515.499 652.4 516.499 651.4 517.799 651.4H522.099C523.399 651.4 524.399 652.4 524.399 653.7V654.7ZM536.099 654.7C536.099 656 535.099 657 533.799 657H529.499C528.199 657 527.199 656 527.199 654.7V653.7C527.199 652.4 528.199 651.4 529.499 651.4H533.799C535.099 651.4 536.099 652.4 536.099 653.7V654.7ZM546.399 659.1C543.699 659.1 541.599 656.9 541.599 654.3C541.599 651.6 543.799 649.5 546.399 649.5C549.099 649.5 551.199 651.7 551.199 654.3C551.199 656.9 548.999 659.1 546.399 659.1ZM559.399 659.1C556.699 659.1 554.599 656.9 554.599 654.3C554.599 651.6 556.799 649.5 559.399 649.5C562.099 649.5 564.199 651.7 564.199 654.3C564.199 656.9 561.999 659.1 559.399 659.1Z" fill="#ADBBC8"/>
<path d="M550.799 589.299V624.799C550.799 626.999 548.999 628.799 546.799 628.799H537.799C536.699 628.799 535.799 629.699 535.799 630.799C535.799 631.899 536.699 632.799 537.799 632.799H546.799C551.199 632.799 554.799 629.199 554.799 624.799V589.499C558.999 588.699 562.099 585.099 562.099 580.699C562.099 575.799 558.099 571.699 553.099 571.699C548.199 571.699 544.099 575.699 544.099 580.699C544.199 584.899 546.999 588.299 550.799 589.299Z" fill="white"/>
<path d="M537.101 592.2C537.801 592.9 538.901 592.9 539.601 592.4C539.701 592.3 539.801 592.2 539.901 592.1C540.701 591.3 540.601 590 539.801 589.3C534.901 584.6 534.701 576.7 539.401 571.8C540.201 571 540.101 569.7 539.301 569C538.501 568.2 537.201 568.3 536.501 569.1C530.301 575.6 530.501 586 537.101 592.2Z" fill="#323132"/>
<path d="M531.1 598.4C531.8 599.1 532.8 599.1 533.6 598.6C533.7 598.5 533.8 598.4 533.9 598.3C534.7 597.5 534.6 596.2 533.8 595.5C529.7 591.6 527.5 586.4 527.3 580.8C527.2 575.2 529.2 569.9 533.1 565.8C533.9 565 533.8 563.7 533 563C532.2 562.2 530.9 562.3 530.2 563.1C525.6 567.9 523.1 574.3 523.3 580.9C523.6 587.6 526.3 593.8 531.1 598.4Z" fill="#323132"/>
<path d="M528.1 604.5C528.2 604.4 528.3 604.3 528.4 604.2C529.2 603.4 529.1 602.1 528.3 601.4C522.7 596 519.5 588.8 519.3 581C519.1 573.2 522 565.9 527.3 560.3C528.1 559.5 528 558.2 527.2 557.5C526.4 556.7 525.1 556.8 524.4 557.6C518.3 564 515.1 572.4 515.3 581.2C515.5 590 519.1 598.2 525.5 604.3C526.3 605 527.3 605 528.1 604.5Z" fill="#323132"/>
<path d="M1063.4 165.8C1044.8 165.8 1029.6 180.9 1029.6 199.6C1029.6 228.4 1063.4 252.4 1063.4 252.4C1063.4 252.4 1097.2 228.4 1097.2 199.6C1097.2 180.9 1082.1 165.8 1063.4 165.8ZM1063.4 214.9C1054.9 214.9 1048 208 1048 199.5C1048 191 1054.9 184.1 1063.4 184.1C1071.9 184.1 1078.8 191 1078.8 199.5C1078.8 208.1 1071.9 214.9 1063.4 214.9Z" fill="white"/>
<path d="M356.1 496.901C353.3 487.601 344.6 480.801 334.4 480.801C324.7 480.801 316.5 486.901 313.2 495.501C312.5 495.301 311.8 495.101 311.1 495.101C307 495.101 303.7 498.401 303.7 502.501C303.7 503.101 303.8 503.701 303.9 504.201C299.5 505.801 296.4 510.101 296.4 515.001C296.4 521.401 301.6 526.601 308 526.601C312.7 526.601 349 526.601 352.1 526.601C360.5 526.601 367.3 519.801 367.3 511.401C367.3 504.501 362.5 498.601 356.1 496.901Z" fill="white"/>
<path fill-rule="evenodd" clip-rule="evenodd" d="M897.5 566C876.2 566 858.9 583.3 858.9 604.6C858.9 625.9 876.2 643.2 897.5 643.2C918.8 643.2 936.1 625.9 936.1 604.6C936.2 583.3 918.9 566 897.5 566ZM897.9 633.3C881.9 633.3 868.9 620.3 868.9 604.3C868.9 588.3 881.9 575.3 897.9 575.3C913.9 575.3 926.9 588.3 926.9 604.3C926.8 620.4 913.9 633.3 897.9 633.3Z" fill="white"/>
<path fill-rule="evenodd" clip-rule="evenodd" d="M889.501 600.801L880.801 621.701L902.401 612.501L889.501 600.801Z" fill="#323132"/>
<path fill-rule="evenodd" clip-rule="evenodd" d="M892.5 597L905.6 609L914.4 587.9L892.5 597Z" fill="#EEAC34"/>
<path d="M705.4 81.2002V107.9H736.6V81.2002H705.4ZM724.6 105.6H718.3V104.6H724.6V105.6ZM733.7 102.1H708.7V84.0002H733.7V102.1Z" fill="#ADBBC8"/>
<path d="M734.201 108.601H707.801V112.301H734.201V108.601Z" fill="#ADBBC8"/>
<path d="M747.599 425H738.699V452.2H747.599V425Z" fill="white"/>
<path d="M774.4 415.9H765.5V452.2H774.4V415.9Z" fill="white"/>
<path d="M761 437.1H752.1V452.2H761V437.1Z" fill="white"/>
</g>
<defs>
<clipPath id="clip0_105_2">
<rect width="1400" height="980" fill="white"/>
</clipPath>
</defs>
</svg>
