<?xml version="1.0" standalone="no"?>
<!DOCTYPE svg PUBLIC "-//W3C//DTD SVG 20010904//EN"
 "http://www.w3.org/TR/2001/REC-SVG-20010904/DTD/svg10.dtd">
<svg version="1.0" xmlns="http://www.w3.org/2000/svg"
 width="477.000000pt" height="360.000000pt" viewBox="0 0 477.000000 360.000000"
 preserveAspectRatio="xMidYMid meet">

<g transform="translate(0.000000,360.000000) scale(0.100000,-0.100000)"
fill="#000000" stroke="none">
<path d="M945 1616 c-95 -30 -112 -41 -194 -115 -103 -94 -105 -135 -8 -241
44 -49 50 -52 72 -42 14 7 30 24 36 39 35 89 38 93 67 93 54 0 89 -75 78 -166
-6 -50 -4 -54 23 -73 39 -28 113 -29 141 -1 24 24 26 70 5 111 -17 33 -31 30
-46 -8 -13 -35 -50 -28 -63 12 -5 17 -20 58 -33 93 l-24 62 20 26 c12 15 21
38 21 52 0 14 14 46 30 72 25 39 29 52 21 72 -17 44 -43 47 -146 14z"/>
<path d="M3545 1615 c-34 -33 -32 -46 14 -99 22 -25 43 -56 46 -68 4 -13 21
-38 38 -55 28 -30 30 -35 20 -67 -19 -61 1 -67 51 -13 44 48 44 48 74 33 16
-8 34 -28 40 -44 13 -38 50 -72 78 -72 18 0 33 16 65 71 67 112 57 177 -35
229 -24 14 -64 37 -88 53 -36 21 -69 30 -158 42 -63 8 -115 15 -117 15 -2 0
-15 -11 -28 -25z"/>
<path d="M2023 1488 c-13 -17 -23 -147 -12 -153 4 -3 40 10 79 30 50 25 70 41
68 52 -2 9 -31 31 -64 50 -48 26 -63 31 -71 21z"/>
<path d="M763 1118 c-40 -45 -106 -153 -149 -242 -44 -93 -94 -249 -94 -292 0
-13 -4 -24 -10 -24 -5 0 -10 13 -10 29 0 39 -19 90 -47 129 -69 93 -233 97
-233 6 0 -15 16 -112 36 -216 31 -158 41 -195 62 -220 47 -55 65 -58 372 -58
267 0 281 1 300 20 12 12 20 33 20 54 l0 34 132 12 c118 12 209 27 168 29 -19
1 -258 -26 -302 -34 -92 -16 -175 108 -253 379 -36 125 -34 169 9 212 26 26
42 34 70 34 44 0 91 -23 106 -51 18 -32 60 -180 60 -208 0 -29 23 -109 40
-140 18 -35 44 -41 197 -47 131 -5 150 -8 166 -26 21 -24 21 -44 3 -80 -8 -16
-11 -28 -7 -28 15 0 33 59 27 84 -12 49 -26 53 -190 61 -140 7 -157 9 -175 29
-29 32 -48 115 -62 271 -14 168 -29 211 -90 252 -39 26 -99 53 -119 53 -3 0
-16 -10 -27 -22z"/>
<path d="M4055 469 c-86 -43 -127 -104 -150 -226 -8 -43 -15 -79 -15 -80 0 -2
124 -3 275 -3 307 0 329 4 365 62 14 24 20 50 20 94 0 70 -23 113 -79 151 -32
22 -43 23 -205 23 -150 -1 -176 -3 -211 -21z"/>
<path d="M1325 362 c-16 -11 -36 -26 -44 -35 -12 -16 4 -17 223 -17 210 0 237
2 243 16 3 9 2 24 -4 33 -9 14 -38 16 -199 18 -168 3 -192 1 -219 -15z"/>
<path d="M2980 277 c0 -7 19 -24 43 -38 42 -24 45 -24 350 -27 l308 -3 -11 20
c-6 12 -21 21 -34 21 -13 0 -36 10 -50 21 l-28 22 -38 -22 c-34 -19 -53 -21
-208 -21 -154 0 -172 2 -195 20 -30 24 -137 29 -137 7z"/>
</g>
</svg>
